<svg width="1035" height="227" viewBox="0 0 1035 227" fill="none" xmlns="http://www.w3.org/2000/svg">
<path d="M65.2999 222.16H1.37988L73.3999 3.97998H154.37L226.39 222.16H162.47L114.74 64.06H113.04L65.2999 222.16Z" stroke="#F4F4F4" stroke-width="2"/>
<path d="M247.26 222.16V3.97998H341.86C358.48 3.97998 372.45 6.21998 383.78 10.69C395.11 15.16 403.66 21.49 409.45 29.65C415.24 37.82 418.13 47.44 418.13 58.52C418.13 66.55 416.37 73.86 412.86 80.47C409.34 87.08 404.43 92.6 398.11 97.04C391.79 101.48 384.4 104.55 375.95 106.25V108.38C385.33 108.74 393.85 111.1 401.52 115.46C409.19 119.83 415.3 125.83 419.84 133.46C424.38 141.1 426.66 150.06 426.66 160.36C426.66 172.29 423.55 182.91 417.34 192.21C411.12 201.51 402.3 208.83 390.87 214.16C379.43 219.49 365.8 222.15 349.96 222.15H247.26V222.16ZM306.49 92.19H330.78C335.96 92.19 340.54 91.37 344.52 89.74C348.5 88.11 351.6 85.74 353.84 82.66C356.08 79.57 357.2 75.79 357.2 71.31C357.2 64.56 354.78 59.4 349.96 55.81C345.13 52.22 339.02 50.43 331.64 50.43H306.5V92.19H306.49ZM306.49 174.86H334.19C344.13 174.86 351.59 173 356.56 169.27C361.53 165.54 364.02 160.02 364.02 152.7C364.02 147.59 362.85 143.25 360.5 139.7C358.16 136.15 354.83 133.45 350.54 131.6C346.24 129.75 341.08 128.83 335.04 128.83H306.49V174.86Z" stroke="#F4F4F4" stroke-width="2"/>
<path d="M658.9 113.07C658.9 137.36 654.18 157.83 644.73 174.49C635.28 191.15 622.53 203.75 606.48 212.31C590.43 220.87 572.53 225.15 552.79 225.15C532.9 225.15 514.95 220.84 498.94 212.21C482.92 203.58 470.21 190.94 460.8 174.28C451.39 157.63 446.68 137.22 446.68 113.08C446.68 88.79 451.38 68.32 460.8 51.66C470.21 35.01 482.92 22.4 498.94 13.84C514.96 5.28 532.91 1 552.8 1C572.54 1 590.44 5.28 606.49 13.84C622.54 22.4 635.29 35.01 644.74 51.66C654.18 68.31 658.9 88.78 658.9 113.07ZM597.97 113.07C597.97 100 596.25 88.98 592.8 79.99C589.35 71.01 584.28 64.19 577.57 59.54C570.86 54.89 562.6 52.56 552.8 52.56C543 52.56 534.74 54.89 528.03 59.54C521.32 64.19 516.24 71.01 512.8 79.99C509.35 88.98 507.63 100 507.63 113.07C507.63 126.14 509.35 137.16 512.8 146.15C516.24 155.14 521.32 161.95 528.03 166.6C534.74 171.25 543 173.58 552.8 173.58C562.6 173.58 570.86 171.25 577.57 166.6C584.28 161.95 589.36 155.13 592.8 146.15C596.24 137.17 597.97 126.14 597.97 113.07Z" stroke="#F4F4F4" stroke-width="2"/>
<path d="M815.29 3.97998H874.52V143.75C874.52 160.37 870.56 174.74 862.64 186.84C854.72 198.95 843.69 208.29 829.56 214.86C815.43 221.43 799.02 224.71 780.34 224.71C761.52 224.71 745.04 221.43 730.91 214.86C716.78 208.29 705.79 198.95 697.94 186.84C690.09 174.73 686.17 160.37 686.17 143.75V3.97998H745.4V138.64C745.4 145.39 746.89 151.41 749.87 156.7C752.85 161.99 756.99 166.13 762.28 169.11C767.57 172.09 773.59 173.58 780.34 173.58C787.16 173.58 793.19 172.09 798.45 169.11C803.7 166.13 807.83 161.99 810.81 156.7C813.79 151.41 815.28 145.39 815.28 138.64V3.97998H815.29Z" stroke="#F4F4F4" stroke-width="2"/>
<path d="M896.68 51.71V3.97998H1086.31V51.71H1020.68V222.16H962.3V51.71H896.68Z" stroke="#F4F4F4" stroke-width="2"/>
</svg>
