<svg width="875" height="221" viewBox="0 0 875 221" fill="none" xmlns="http://www.w3.org/2000/svg">
<path d="M212.7 1V219.18H163.27L84.4397 104.55H83.1597V219.18H23.9297V1H74.2097L151.77 115.2H153.48V1H212.7Z" stroke="white" stroke-width="2"/>
<path d="M240.83 219.18V1H398.07V48.73H300.06V86.23H389.97V133.96H300.06V171.46H397.64V219.19H240.83V219.18Z" stroke="white" stroke-width="2"/>
<path d="M427.47 219.18V1H580.88V48.73H486.7V86.23H571.5V133.96H486.7V219.19H427.47V219.18Z" stroke="white" stroke-width="2"/>
<path d="M661.85 1V219.18H602.62V1H661.85Z" stroke="white" stroke-width="2"/>
<path d="M684 48.73V1H873.63V48.73H808.01V219.18H749.63V48.73H684Z" stroke="white" stroke-width="2"/>
</svg>
