<svg width="808" height="227" viewBox="0 0 808 227" fill="none" xmlns="http://www.w3.org/2000/svg">
<path d="M1 222.16V3.97998H95.6C112.22 3.97998 126.19 6.21998 137.52 10.69C148.85 15.16 157.41 21.49 163.19 29.65C168.98 37.82 171.87 47.44 171.87 58.52C171.87 66.55 170.11 73.86 166.6 80.47C163.08 87.08 158.17 92.6 151.84 97.04C145.52 101.48 138.13 104.55 129.68 106.25V108.38C139.06 108.74 147.58 111.1 155.25 115.46C162.92 119.83 169.03 125.83 173.57 133.46C178.11 141.1 180.39 150.06 180.39 160.36C180.39 172.29 177.28 182.91 171.07 192.21C164.85 201.51 156.03 208.83 144.6 214.16C133.16 219.49 119.53 222.15 103.69 222.15H1V222.16ZM60.23 92.19H84.52C89.7 92.19 94.28 91.37 98.26 89.74C102.24 88.11 105.34 85.74 107.58 82.66C109.82 79.57 110.94 75.79 110.94 71.31C110.94 64.56 108.52 59.4 103.7 55.81C98.87 52.22 92.76 50.43 85.38 50.43H60.23V92.19ZM60.23 174.86H87.93C97.87 174.86 105.33 173 110.3 169.27C115.27 165.54 117.76 160.02 117.76 152.7C117.76 147.59 116.59 143.25 114.24 139.7C111.9 136.15 108.58 133.45 104.28 131.6C99.98 129.75 94.82 128.83 88.78 128.83H60.23V174.86Z" stroke="#F4F4F4" stroke-width="2"/>
<path d="M201.28 222.16V3.97998H260.51V174.44H348.72V222.17H201.28V222.16Z" stroke="#F4F4F4" stroke-width="2"/>
<path d="M575.43 113.07C575.43 137.36 570.71 157.83 561.26 174.49C551.81 191.15 539.06 203.75 523.01 212.31C506.96 220.87 489.06 225.15 469.32 225.15C449.43 225.15 431.48 220.84 415.47 212.21C399.45 203.58 386.74 190.94 377.33 174.28C367.92 157.63 363.21 137.22 363.21 113.08C363.21 88.79 367.91 68.32 377.33 51.66C386.74 35.01 399.45 22.4 415.47 13.84C431.48 5.28 449.44 1 469.32 1C489.06 1 506.96 5.28 523.01 13.84C539.06 22.4 551.81 35.01 561.26 51.66C570.71 68.31 575.43 88.78 575.43 113.07ZM514.49 113.07C514.49 100 512.77 88.98 509.32 79.99C505.87 71.01 500.8 64.19 494.09 59.54C487.38 54.89 479.12 52.56 469.32 52.56C459.52 52.56 451.26 54.89 444.55 59.54C437.84 64.19 432.76 71.01 429.32 79.99C425.87 88.98 424.15 100 424.15 113.07C424.15 126.14 425.87 137.16 429.32 146.15C432.76 155.14 437.84 161.95 444.55 166.6C451.26 171.25 459.52 173.58 469.32 173.58C479.12 173.58 487.38 171.25 494.09 166.6C500.8 161.95 505.88 155.13 509.32 146.15C512.77 137.17 514.49 126.14 514.49 113.07Z" stroke="#F4F4F4" stroke-width="2"/>
<path d="M744.39 76C743.47 72.24 742.01 68.92 740.02 66.04C738.03 63.16 735.56 60.71 732.62 58.69C729.67 56.67 726.26 55.14 722.39 54.11C718.52 53.08 714.27 52.57 709.66 52.57C699.72 52.57 691.25 54.95 684.25 59.71C677.25 64.47 671.93 71.32 668.27 80.27C664.61 89.22 662.78 100.02 662.78 112.66C662.78 125.44 664.52 136.38 668 145.47C671.48 154.56 676.66 161.52 683.55 166.35C690.44 171.18 699 173.59 709.22 173.59C718.24 173.59 725.75 172.28 731.75 169.65C737.75 167.02 742.24 163.29 745.23 158.46C748.21 153.63 749.7 147.95 749.7 141.41L759.93 142.48H710.07V100.29H806.8V130.55C806.8 150.44 802.59 167.43 794.18 181.53C785.76 195.63 774.19 206.42 759.45 213.92C744.71 221.41 727.83 225.16 708.79 225.16C687.55 225.16 668.91 220.65 652.86 211.63C636.81 202.61 624.29 189.76 615.31 173.06C606.32 156.37 601.83 136.52 601.83 113.51C601.83 95.47 604.58 79.49 610.09 65.57C615.59 51.65 623.25 39.88 633.05 30.25C642.85 20.63 654.18 13.35 667.03 8.41C679.9 3.47 693.68 1 708.38 1C721.31 1 733.33 2.83 744.44 6.49C755.56 10.15 765.39 15.33 773.95 22.04C782.51 28.75 789.41 36.69 794.67 45.85C799.92 55.01 803.12 65.06 804.26 76H744.39Z" stroke="#F4F4F4" stroke-width="2"/>
</svg>
