<svg width="1920" height="224" viewBox="0 0 1920 224" fill="none" xmlns="http://www.w3.org/2000/svg">
<path d="M-350.557 85.0909V87.0909H-348.383L-348.564 84.924L-350.557 85.0909ZM-410.442 85.0909L-412.435 85.2617L-412.278 87.0909H-410.442V85.0909ZM-413.84 71.6062L-415.671 72.4095L-415.665 72.4229L-415.659 72.4362L-413.84 71.6062ZM-421.272 61.2006L-422.653 62.6473L-422.636 62.6634L-422.619 62.679L-421.272 61.2006ZM-432.633 54.4052L-433.319 56.2839L-433.306 56.2887L-433.293 56.2934L-432.633 54.4052ZM-472.981 59.1832L-474.13 57.5455L-474.137 57.5512L-472.981 59.1832ZM-488.484 79.8881L-490.345 79.1555L-490.35 79.1682L-488.484 79.8881ZM-488.377 145.719L-490.238 146.452L-490.235 146.461L-490.231 146.469L-488.377 145.719ZM-472.769 165.893L-473.878 167.557L-473.872 167.561L-473.866 167.565L-472.769 165.893ZM-433.589 170.565L-432.994 172.475L-432.98 172.47L-432.966 172.465L-433.589 170.565ZM-422.334 164.513L-421.064 166.058L-422.334 164.513ZM-414.583 155.063L-416.338 154.103L-416.344 154.115L-414.583 155.063ZM-410.442 142.428L-410.428 140.428L-412.16 140.415L-412.419 142.128L-410.442 142.428ZM-350.557 142.852L-348.563 143.006L-348.398 140.868L-350.543 140.852L-350.557 142.852ZM-358.308 170.99L-356.498 171.841L-356.496 171.835L-358.308 170.99ZM-377.314 197.322L-375.912 198.749L-375.912 198.749L-377.314 197.322ZM-407.575 216.647L-408.327 214.793L-407.575 216.647ZM-503.242 211.125L-504.196 212.883L-504.193 212.885L-503.242 211.125ZM-540.724 173.326L-542.477 174.288L-542.474 174.294L-540.724 173.326ZM-540.405 51.1136L-538.663 52.0963L-538.661 52.0931L-540.405 51.1136ZM-502.605 13.4201L-501.661 15.1831L-501.655 15.1798L-502.605 13.4201ZM-411.61 6.19991L-410.992 4.29793L-411.61 6.19991ZM-381.243 22.6577L-382.52 24.1972L-382.512 24.2033L-381.243 22.6577ZM-360.219 49.0962L-362.003 50.0003L-360.219 49.0962ZM-350.557 83.0909H-410.442V87.0909H-350.557V83.0909ZM-408.449 84.9201C-408.891 79.7645 -410.074 75.0428 -412.02 70.7762L-415.659 72.4362C-413.925 76.2391 -412.842 80.5073 -412.435 85.2617L-408.449 84.9201ZM-412.008 70.8028C-413.888 66.5175 -416.528 62.8174 -419.925 59.7222L-422.619 62.679C-419.646 65.3883 -417.331 68.6253 -415.671 72.4095L-412.008 70.8028ZM-419.891 59.7539C-423.232 56.5656 -427.272 54.1591 -431.974 52.517L-433.293 56.2934C-429.076 57.7658 -425.542 59.8897 -422.653 62.6473L-419.891 59.7539ZM-431.948 52.5265C-436.665 50.8043 -441.964 49.9631 -447.817 49.9631V53.9631C-442.344 53.9631 -437.521 54.7499 -433.319 56.2839L-431.948 52.5265ZM-447.817 49.9631C-458.061 49.9631 -466.869 52.4558 -474.13 57.5456L-471.833 60.8209C-465.361 56.2837 -457.393 53.9631 -447.817 53.9631V49.9631ZM-474.137 57.5512C-481.299 62.6237 -486.686 69.863 -490.345 79.1555L-486.623 80.6208C-483.202 71.9336 -478.255 65.3696 -471.825 60.8153L-474.137 57.5512ZM-490.35 79.1682C-493.929 88.4463 -495.686 99.4984 -495.686 112.273H-491.686C-491.686 99.8472 -489.975 89.3096 -486.618 80.6081L-490.35 79.1682ZM-495.686 112.273C-495.686 125.743 -493.897 137.159 -490.238 146.452L-486.516 144.986C-489.936 136.3 -491.686 125.418 -491.686 112.273H-495.686ZM-490.231 146.469C-486.498 155.693 -481.064 162.767 -473.878 167.557L-471.66 164.229C-478.065 159.959 -483.037 153.583 -486.523 144.969L-490.231 146.469ZM-473.866 167.565C-466.691 172.274 -458.118 174.582 -448.242 174.582V170.582C-457.478 170.582 -465.256 168.431 -471.672 164.221L-473.866 167.565ZM-448.242 174.582C-442.629 174.582 -437.54 173.89 -432.994 172.475L-434.184 168.655C-438.274 169.93 -442.953 170.582 -448.242 170.582V174.582ZM-432.966 172.465C-428.436 170.98 -424.46 168.85 -421.064 166.058L-423.604 162.968C-426.579 165.414 -430.106 167.318 -434.212 168.665L-432.966 172.465ZM-421.064 166.058C-417.675 163.271 -414.926 159.918 -412.822 156.011L-416.344 154.115C-418.204 157.57 -420.623 160.516 -423.604 162.968L-421.064 166.058ZM-412.828 156.023C-410.652 152.045 -409.204 147.606 -408.465 142.727L-412.419 142.128C-413.096 146.593 -414.408 150.577 -416.338 154.103L-412.828 156.023ZM-410.456 144.428L-350.571 144.852L-350.543 140.852L-410.428 140.428L-410.456 144.428ZM-352.551 142.699C-353.238 151.63 -355.748 160.775 -360.121 170.144L-356.496 171.835C-351.949 162.092 -349.292 152.479 -348.563 143.006L-352.551 142.699ZM-360.118 170.139C-364.467 179.389 -370.657 187.976 -378.716 195.896L-375.912 198.749C-367.549 190.529 -361.068 181.561 -356.498 171.841L-360.118 170.139ZM-378.716 195.896C-386.646 203.687 -396.503 209.994 -408.327 214.793L-406.823 218.5C-394.58 213.531 -384.263 206.954 -375.912 198.749L-378.716 195.896ZM-408.327 214.793C-420.075 219.561 -433.79 221.973 -449.516 221.973V225.973C-433.388 225.973 -419.143 223.5 -406.823 218.5L-408.327 214.793ZM-449.516 221.973C-469.182 221.973 -486.758 217.757 -502.292 209.366L-504.193 212.885C-488.014 221.624 -469.773 225.973 -449.516 225.973V221.973ZM-502.289 209.367C-517.719 200.995 -529.945 188.679 -538.974 172.358L-542.474 174.294C-533.098 191.242 -520.337 204.125 -504.196 212.883L-502.289 209.367ZM-538.97 172.363C-547.902 156.092 -552.421 136.092 -552.421 112.273H-556.421C-556.421 136.588 -551.808 157.29 -542.477 174.288L-538.97 172.363ZM-552.421 112.273C-552.421 88.3161 -547.798 68.2892 -538.663 52.0963L-542.147 50.131C-551.7 67.0659 -556.421 87.8117 -556.421 112.273H-552.421ZM-538.661 52.0931C-529.492 35.7692 -517.161 23.4865 -501.661 15.1831L-503.55 11.6571C-519.762 20.3423 -532.63 33.1886 -542.149 50.1342L-538.661 52.0931ZM-501.655 15.1798C-486.115 6.78547 -468.75 2.57243 -449.516 2.57243V-1.42757C-469.356 -1.42757 -487.384 2.92451 -503.556 11.6604L-501.655 15.1798ZM-449.516 2.57243C-435.966 2.57243 -423.542 4.42311 -412.228 8.1019L-410.992 4.29793C-422.754 0.473408 -435.601 -1.42757 -449.516 -1.42757V2.57243ZM-412.228 8.1019C-400.913 11.7811 -391.018 17.1497 -382.519 24.1972L-379.966 21.1181C-388.881 13.7252 -399.231 8.12202 -410.992 4.29793L-412.228 8.1019ZM-382.512 24.2033C-374.029 31.1693 -367.192 39.7605 -362.003 50.0003L-358.435 48.1922C-363.864 37.4794 -371.044 28.4447 -379.974 21.112L-382.512 24.2033ZM-362.003 50.0003C-356.828 60.2138 -353.664 71.9552 -352.55 85.2579L-348.564 84.924C-349.715 71.1864 -352.993 58.9313 -358.435 48.1922L-362.003 50.0003ZM-323.773 221H-325.773V223H-323.773V221ZM-323.773 3.54545V1.54545H-325.773V3.54545H-323.773ZM-264.738 3.54545H-262.738V1.54545H-264.738V3.54545ZM-264.738 173.432H-266.738V175.432H-264.738V173.432ZM-176.822 173.432H-174.822V171.432H-176.822V173.432ZM-176.822 221V223H-174.822V221H-176.822ZM-321.773 221V3.54545H-325.773V221H-321.773ZM-323.773 5.54545H-264.738V1.54545H-323.773V5.54545ZM-266.738 3.54545V173.432H-262.738V3.54545H-266.738ZM-264.738 175.432H-176.822V171.432H-264.738V175.432ZM-178.822 173.432V221H-174.822V173.432H-178.822ZM-176.822 219H-323.773V223H-176.822V219ZM-93.9225 3.54545H-91.9225V1.54545H-93.9225V3.54545ZM-93.9225 221V223H-91.9225V221H-93.9225ZM-152.958 221H-154.958V223H-152.958V221ZM-152.958 3.54545V1.54545H-154.958V3.54545H-152.958ZM-95.9225 3.54545V221H-91.9225V3.54545H-95.9225ZM-93.9225 219H-152.958V223H-93.9225V219ZM-150.958 221V3.54545H-154.958V221H-150.958ZM-152.958 5.54545H-93.9225V1.54545H-152.958V5.54545ZM-65.9443 221H-67.9443V223H-65.9443V221ZM-65.9443 3.54545V1.54545H-67.9443V3.54545H-65.9443ZM90.7758 3.54545H92.7758V1.54545H90.7758V3.54545ZM90.7758 51.1136V53.1136H92.7758V51.1136H90.7758ZM-6.90881 51.1136V49.1136H-8.90881V51.1136H-6.90881ZM-6.90881 88.4886H-8.90881V90.4886H-6.90881V88.4886ZM82.7062 88.4886H84.7062V86.4886H82.7062V88.4886ZM82.7062 136.057V138.057H84.7062V136.057H82.7062ZM-6.90881 136.057V134.057H-8.90881V136.057H-6.90881ZM-6.90881 173.432H-8.90881V175.432H-6.90881V173.432ZM90.3511 173.432H92.3511V171.432H90.3511V173.432ZM90.3511 221V223H92.3511V221H90.3511ZM-63.9443 221V3.54545H-67.9443V221H-63.9443ZM-65.9443 5.54545H90.7758V1.54545H-65.9443V5.54545ZM88.7758 3.54545V51.1136H92.7758V3.54545H88.7758ZM90.7758 49.1136H-6.90881V53.1136H90.7758V49.1136ZM-8.90881 51.1136V88.4886H-4.90881V51.1136H-8.90881ZM-6.90881 90.4886H82.7062V86.4886H-6.90881V90.4886ZM80.7062 88.4886V136.057H84.7062V88.4886H80.7062ZM82.7062 134.057H-6.90881V138.057H82.7062V134.057ZM-8.90881 136.057V173.432H-4.90881V136.057H-8.90881ZM-6.90881 175.432H90.3511V171.432H-6.90881V175.432ZM88.3511 173.432V221H92.3511V173.432H88.3511ZM90.3511 219H-65.9443V223H90.3511V219ZM308.204 3.54545H310.204V1.54545H308.204V3.54545ZM308.204 221V223H310.204V221H308.204ZM258.937 221L257.289 222.133L257.885 223H258.937V221ZM180.364 106.751L182.012 105.618L181.416 104.751H180.364V106.751ZM179.09 106.751V104.751H177.09V106.751H179.09ZM179.09 221V223H181.09V221H179.09ZM120.055 221H118.055V223H120.055V221ZM120.055 3.54545V1.54545H118.055V3.54545H120.055ZM170.171 3.54545L171.826 2.42184L171.231 1.54545H170.171V3.54545ZM247.469 117.369L245.815 118.493L246.41 119.369H247.469V117.369ZM249.168 117.369V119.369H251.168V117.369H249.168ZM249.168 3.54545V1.54545H247.168V3.54545H249.168ZM306.204 3.54545V221H310.204V3.54545H306.204ZM308.204 219H258.937V223H308.204V219ZM260.585 219.867L182.012 105.618L178.716 107.885L257.289 222.133L260.585 219.867ZM180.364 104.751H179.09V108.751H180.364V104.751ZM177.09 106.751V221H181.09V106.751H177.09ZM179.09 219H120.055V223H179.09V219ZM122.055 221V3.54545H118.055V221H122.055ZM120.055 5.54545H170.171V1.54545H120.055V5.54545ZM168.517 4.66906L245.815 118.493L249.124 116.246L171.826 2.42184L168.517 4.66906ZM247.469 119.369H249.168V115.369H247.469V119.369ZM251.168 117.369V3.54545H247.168V117.369H251.168ZM249.168 5.54545H308.204V1.54545H249.168V5.54545ZM330.183 51.1136H328.183V53.1136H330.183V51.1136ZM330.183 3.54545V1.54545H328.183V3.54545H330.183ZM519.182 3.54545H521.182V1.54545H519.182V3.54545ZM519.182 51.1136V53.1136H521.182V51.1136H519.182ZM453.775 51.1136V49.1136H451.775V51.1136H453.775ZM453.775 221V223H455.775V221H453.775ZM395.589 221H393.589V223H395.589V221ZM395.589 51.1136H397.589V49.1136H395.589V51.1136ZM332.183 51.1136V3.54545H328.183V51.1136H332.183ZM330.183 5.54545H519.182V1.54545H330.183V5.54545ZM517.182 3.54545V51.1136H521.182V3.54545H517.182ZM519.182 49.1136H453.775V53.1136H519.182V49.1136ZM451.775 51.1136V221H455.775V51.1136H451.775ZM453.775 219H395.589V223H453.775V219ZM397.589 221V51.1136H393.589V221H397.589ZM395.589 49.1136H330.183V53.1136H395.589V49.1136ZM658.621 71.5L656.627 71.6595L656.775 73.5H658.621V71.5ZM650.658 54.9361L649.364 56.4611L649.369 56.4659L649.375 56.4706L650.658 54.9361ZM614.344 51.2198L615.039 53.0953L615.048 53.0918L615.058 53.0882L614.344 51.2198ZM605.85 57.0596L604.245 55.867L605.85 57.0596ZM602.983 65.554L604.98 65.6619L604.982 65.6302L604.983 65.5984L602.983 65.554ZM604.364 72.668L602.575 73.5624L602.593 73.5986L602.612 73.6341L604.364 72.668ZM609.672 78.2954L608.519 79.9294L608.535 79.9409L608.552 79.952L609.672 78.2954ZM632.289 86.3651L632.708 84.4095L632.699 84.4077L632.691 84.406L632.289 86.3651ZM650.127 90.1875L649.708 92.1431L649.712 92.1441L650.127 90.1875ZM681.025 100.275L680.148 102.072L681.025 100.275ZM702.048 115.033L700.607 116.42L700.616 116.429L702.048 115.033ZM714.046 133.933L712.167 134.617L712.17 134.625L712.173 134.633L714.046 133.933ZM718.081 156.868L720.081 156.878L720.081 156.864L720.081 156.851L718.081 156.868ZM707.357 193.181L708.985 194.344L707.357 193.181ZM676.99 215.797L676.259 213.935L676.256 213.937L676.99 215.797ZM580.261 215.16L579.52 217.018L579.523 217.019L580.261 215.16ZM547.558 189.359L545.889 190.461L545.897 190.473L547.558 189.359ZM535.878 144.551V142.551H533.87L533.878 144.559L535.878 144.551ZM591.941 144.551L593.938 144.445L593.837 142.551H591.941V144.551ZM596.931 161.327L595.259 162.425L596.931 161.327ZM609.46 171.627L608.664 173.461L608.672 173.465L609.46 171.627ZM644.712 172.795L645.4 174.673L644.712 172.795ZM654.374 166.318L655.939 167.562L654.374 166.318ZM657.772 156.868L659.771 156.908L659.772 156.867L659.771 156.825L657.772 156.868ZM654.48 148.161L652.922 149.416L652.942 149.44L652.962 149.463L654.48 148.161ZM644.287 141.366L643.492 143.201L643.504 143.206L643.516 143.211L644.287 141.366ZM625.068 135.632L625.497 133.679L625.49 133.677L625.068 135.632ZM603.408 130.96L602.984 132.915L602.986 132.915L603.408 130.96ZM557.857 110.043L556.527 111.536L556.537 111.545L557.857 110.043ZM541.399 69.8011L543.399 69.8095V69.8002V69.7909L541.399 69.8011ZM552.442 33.5941L550.82 32.4243L550.818 32.4264L552.442 33.5941ZM583.552 9.27911L582.753 7.4459L582.749 7.44747L583.552 9.27911ZM674.866 9.38529L674.033 11.2033L674.866 9.38529ZM704.49 34.2312L702.813 35.32L702.817 35.3264L702.821 35.3329L704.49 34.2312ZM715.108 71.5V73.5H717.118L717.108 71.4901L715.108 71.5ZM660.615 71.3405C660.012 63.8134 657.157 57.7619 651.94 53.4015L649.375 56.4706C653.643 60.0383 656.097 65.0294 656.627 71.6595L660.615 71.3405ZM651.952 53.4111C646.764 49.0094 639.094 46.99 629.316 46.99V50.99C638.65 50.99 645.208 52.9347 649.364 56.4611L651.952 53.4111ZM629.316 46.99C623.087 46.99 617.831 47.7476 613.631 49.3514L615.058 53.0882C618.644 51.719 623.37 50.99 629.316 50.99V46.99ZM613.65 49.3443C609.578 50.8523 606.379 52.9932 604.245 55.867L607.456 58.2523C609.002 56.1711 611.466 54.4188 615.039 53.0953L613.65 49.3443ZM604.245 55.867C602.149 58.6885 601.063 61.9241 600.984 65.5095L604.983 65.5984C605.045 62.8131 605.871 60.3858 607.456 58.2523L604.245 55.867ZM600.986 65.446C600.828 68.3744 601.342 71.0967 602.575 73.5624L606.152 71.7735C605.262 69.9921 604.855 67.9717 604.98 65.6619L600.986 65.446ZM602.612 73.6341C603.924 76.0109 605.927 78.0996 608.519 79.9294L610.826 76.6615C608.605 75.0936 607.068 73.4306 606.115 71.7018L602.612 73.6341ZM608.552 79.952C611.138 81.7012 614.38 83.2556 618.235 84.6376L619.585 80.8723C615.937 79.5645 613.021 78.1459 610.793 76.6389L608.552 79.952ZM618.235 84.6376C622.099 86.0227 626.654 87.249 631.886 88.3241L632.691 84.406C627.589 83.3575 623.225 82.1771 619.585 80.8723L618.235 84.6376ZM631.87 88.3207L649.708 92.1431L650.546 88.2319L632.708 84.4095L631.87 88.3207ZM649.712 92.1441C661.63 94.6678 671.766 97.9847 680.148 102.072L681.901 98.4768C673.154 94.2115 662.691 90.8038 650.541 88.2309L649.712 92.1441ZM680.148 102.072C688.546 106.167 695.35 110.958 700.607 116.42L703.489 113.646C697.846 107.783 690.634 102.735 681.901 98.4768L680.148 102.072ZM700.616 116.429C705.878 121.828 709.72 127.888 712.167 134.617L715.926 133.25C713.276 125.963 709.119 119.423 703.48 113.637L700.616 116.429ZM712.173 134.633C714.702 141.4 716.012 148.811 716.081 156.885L720.081 156.851C720.009 148.36 718.629 140.482 715.92 133.233L712.173 134.633ZM716.081 156.858C716.012 170.817 712.528 182.501 705.73 192.019L708.985 194.344C716.343 184.041 720.009 171.516 720.081 156.878L716.081 156.858ZM705.73 192.019C698.911 201.565 689.125 208.886 676.259 213.935L677.721 217.659C691.188 212.374 701.647 204.617 708.985 194.344L705.73 192.019ZM676.256 213.937C663.454 218.988 647.967 221.548 629.74 221.548V225.548C648.323 225.548 664.335 222.941 677.724 217.658L676.256 213.937ZM629.74 221.548C611.033 221.548 594.8 218.78 580.999 213.301L579.523 217.019C593.894 222.724 610.648 225.548 629.74 225.548V221.548ZM581.002 213.303C567.33 207.847 556.763 199.492 549.219 188.245L545.897 190.473C553.926 202.443 565.161 211.289 579.52 217.018L581.002 213.303ZM549.227 188.256C541.781 176.986 537.948 162.461 537.878 144.543L533.878 144.559C533.95 163.025 537.903 178.372 545.889 190.461L549.227 188.256ZM535.878 146.551H591.941V142.551H535.878V146.551ZM589.943 144.657C590.312 151.584 592.052 157.538 595.259 162.425L598.603 160.23C595.864 156.057 594.277 150.826 593.938 144.445L589.943 144.657ZM595.259 162.425C598.463 167.308 602.957 170.984 608.664 173.461L610.257 169.792C605.204 167.598 601.345 164.408 598.603 160.23L595.259 162.425ZM608.672 173.465C614.428 175.932 621.186 177.131 628.891 177.131V173.131C621.589 173.131 615.393 171.993 610.248 169.788L608.672 173.465ZM628.891 177.131C635.34 177.131 640.864 176.336 645.4 174.673L644.023 170.917C640.064 172.368 635.041 173.131 628.891 173.131V177.131ZM645.4 174.673C649.896 173.024 653.46 170.681 655.939 167.562L652.808 165.073C650.899 167.476 648.021 169.451 644.023 170.917L645.4 174.673ZM655.939 167.562C658.408 164.457 659.692 160.884 659.771 156.908L655.772 156.828C655.71 159.931 654.729 162.657 652.808 165.073L655.939 167.562ZM659.771 156.825C659.691 153.046 658.43 149.696 655.999 146.86L652.962 149.463C654.777 151.581 655.711 154.036 655.772 156.91L659.771 156.825ZM656.037 146.907C653.69 143.992 649.949 141.565 645.058 139.52L643.516 143.211C648.11 145.131 651.165 147.234 652.922 149.416L656.037 146.907ZM645.081 139.53C640.172 137.406 633.627 135.461 625.497 133.679L624.64 137.586C632.649 139.342 638.916 141.22 643.492 143.201L645.081 139.53ZM625.49 133.677L603.83 129.005L602.986 132.915L624.647 137.587L625.49 133.677ZM603.832 129.006C584.804 124.878 569.965 118.022 559.177 108.541L556.537 111.545C567.976 121.6 583.504 128.689 602.984 132.915L603.832 129.006ZM559.188 108.55C548.639 99.1505 543.331 86.3191 543.399 69.8095L539.399 69.7928C539.327 87.2604 544.99 101.257 556.527 111.536L559.188 108.55ZM543.399 69.7909C543.331 56.3725 546.901 44.7242 554.066 34.7618L550.818 32.4264C543.118 43.1335 539.327 55.6232 539.399 69.8114L543.399 69.7909ZM554.064 34.7639C561.333 24.6835 571.404 16.7903 584.356 11.1107L582.749 7.44747C569.227 13.3768 558.558 21.6936 550.82 32.4243L554.064 34.7639ZM584.352 11.1123C597.365 5.43628 612.34 2.57243 629.316 2.57243V-1.42757C611.89 -1.42757 596.355 1.51305 582.753 7.4459L584.352 11.1123ZM629.316 2.57243C646.651 2.57243 661.538 5.47363 674.033 11.2033L675.7 7.56732C662.57 1.54648 647.09 -1.42757 629.316 -1.42757V2.57243ZM674.033 11.2033C686.538 16.9378 696.104 24.9827 702.813 35.32L706.168 33.1424C699.003 22.1023 688.819 13.5833 675.7 7.56732L674.033 11.2033ZM702.821 35.3329C709.59 45.5891 713.039 57.6227 713.108 71.5099L717.108 71.4901C717.036 56.9213 713.406 44.109 706.16 33.1295L702.821 35.3329ZM715.108 69.5H658.621V73.5H715.108V69.5ZM917.326 71.5L915.332 71.6595L915.48 73.5H917.326V71.5ZM909.363 54.9361L908.069 56.4611L908.074 56.4659L908.08 56.4706L909.363 54.9361ZM873.049 51.2198L873.744 53.0953L873.754 53.0918L873.763 53.0882L873.049 51.2198ZM864.555 57.0596L862.95 55.867L864.555 57.0596ZM861.688 65.554L863.685 65.6619L863.687 65.6302L863.688 65.5984L861.688 65.554ZM863.069 72.668L861.28 73.5624L861.298 73.5986L861.318 73.6341L863.069 72.668ZM868.378 78.2954L867.224 79.9294L867.24 79.9409L867.257 79.952L868.378 78.2954ZM890.994 86.3651L891.413 84.4095L891.405 84.4077L891.396 84.406L890.994 86.3651ZM908.832 90.1875L908.413 92.1431L908.417 92.1441L908.832 90.1875ZM939.73 100.275L938.853 102.072L939.73 100.275ZM960.753 115.033L959.312 116.42L959.321 116.429L960.753 115.033ZM972.751 133.933L970.872 134.617L970.875 134.625L970.878 134.633L972.751 133.933ZM976.786 156.868L978.786 156.878L978.786 156.864L978.786 156.851L976.786 156.868ZM966.062 193.181L967.69 194.344L966.062 193.181ZM935.695 215.797L934.964 213.935L934.961 213.937L935.695 215.797ZM838.966 215.16L838.225 217.018L838.228 217.019L838.966 215.16ZM806.263 189.359L804.594 190.461L804.602 190.473L806.263 189.359ZM794.583 144.551V142.551H792.575L792.583 144.559L794.583 144.551ZM850.646 144.551L852.643 144.445L852.542 142.551H850.646V144.551ZM855.636 161.327L853.964 162.425L855.636 161.327ZM868.165 171.627L867.369 173.461L867.377 173.465L868.165 171.627ZM903.417 172.795L904.105 174.673L903.417 172.795ZM913.079 166.318L914.645 167.562L913.079 166.318ZM916.477 156.868L918.476 156.908L918.477 156.867L918.476 156.825L916.477 156.868ZM913.185 148.161L911.628 149.416L911.647 149.44L911.667 149.463L913.185 148.161ZM902.992 141.366L902.198 143.201L902.209 143.206L902.221 143.211L902.992 141.366ZM883.774 135.632L884.202 133.679L884.195 133.677L883.774 135.632ZM862.113 130.96L861.689 132.915L861.691 132.915L862.113 130.96ZM816.562 110.043L815.232 111.536L815.242 111.545L816.562 110.043ZM800.104 69.8011L802.104 69.8095V69.8002V69.7909L800.104 69.8011ZM811.147 33.5941L809.525 32.4243L809.523 32.4264L811.147 33.5941ZM842.258 9.27911L841.458 7.4459L841.454 7.44747L842.258 9.27911ZM933.571 9.38529L932.738 11.2033L933.571 9.38529ZM963.195 34.2312L961.518 35.32L961.522 35.3264L961.526 35.3329L963.195 34.2312ZM973.813 71.5V73.5H975.823L975.813 71.4901L973.813 71.5ZM919.32 71.3405C918.718 63.8134 915.862 57.7619 910.645 53.4015L908.08 56.4706C912.349 60.0383 914.802 65.0294 915.332 71.6595L919.32 71.3405ZM910.657 53.4111C905.469 49.0094 897.799 46.99 888.021 46.99V50.99C897.355 50.99 903.913 52.9347 908.069 56.4611L910.657 53.4111ZM888.021 46.99C881.792 46.99 876.536 47.7476 872.336 49.3514L873.763 53.0882C877.349 51.719 882.075 50.99 888.021 50.99V46.99ZM872.355 49.3443C868.283 50.8523 865.084 52.9932 862.95 55.867L866.161 58.2523C867.707 56.1711 870.171 54.4188 873.744 53.0953L872.355 49.3443ZM862.95 55.867C860.854 58.6885 859.768 61.9241 859.689 65.5095L863.688 65.5984C863.75 62.8131 864.576 60.3858 866.161 58.2523L862.95 55.867ZM859.691 65.446C859.533 68.3744 860.047 71.0967 861.28 73.5624L864.858 71.7735C863.967 69.9921 863.561 67.9717 863.685 65.6619L859.691 65.446ZM861.318 73.6341C862.629 76.0109 864.632 78.0996 867.224 79.9294L869.531 76.6615C867.31 75.0936 865.774 73.4306 864.82 71.7018L861.318 73.6341ZM867.257 79.952C869.843 81.7012 873.085 83.2556 876.94 84.6376L878.29 80.8723C874.642 79.5645 871.726 78.1459 869.498 76.6389L867.257 79.952ZM876.94 84.6376C880.804 86.0227 885.359 87.249 890.591 88.3241L891.396 84.406C886.294 83.3575 881.93 82.1771 878.29 80.8723L876.94 84.6376ZM890.575 88.3207L908.413 92.1431L909.251 88.2319L891.413 84.4095L890.575 88.3207ZM908.417 92.1441C920.335 94.6678 930.471 97.9847 938.853 102.072L940.606 98.4768C931.859 94.2115 921.396 90.8038 909.246 88.2309L908.417 92.1441ZM938.853 102.072C947.251 106.167 954.055 110.958 959.312 116.42L962.194 113.646C956.551 107.783 949.339 102.735 940.606 98.4768L938.853 102.072ZM959.321 116.429C964.583 121.828 968.425 127.888 970.872 134.617L974.631 133.25C971.981 125.963 967.824 119.423 962.186 113.637L959.321 116.429ZM970.878 134.633C973.407 141.4 974.717 148.811 974.786 156.885L978.786 156.851C978.714 148.36 977.334 140.482 974.625 133.233L970.878 134.633ZM974.786 156.858C974.717 170.817 971.233 182.501 964.435 192.019L967.69 194.344C975.048 184.041 978.714 171.516 978.786 156.878L974.786 156.858ZM964.435 192.019C957.616 201.565 947.83 208.886 934.964 213.935L936.426 217.659C949.893 212.374 960.352 204.617 967.69 194.344L964.435 192.019ZM934.961 213.937C922.159 218.988 906.672 221.548 888.445 221.548V225.548C907.028 225.548 923.04 222.941 936.429 217.658L934.961 213.937ZM888.445 221.548C869.738 221.548 853.505 218.78 839.704 213.301L838.228 217.019C852.599 222.724 869.353 225.548 888.445 225.548V221.548ZM839.707 213.303C826.035 207.847 815.468 199.492 807.924 188.245L804.602 190.473C812.631 202.443 823.866 211.289 838.225 217.018L839.707 213.303ZM807.932 188.256C800.486 176.986 796.653 162.461 796.583 144.543L792.583 144.559C792.655 163.025 796.608 178.372 804.594 190.461L807.932 188.256ZM794.583 146.551H850.646V142.551H794.583V146.551ZM848.649 144.657C849.017 151.584 850.757 157.538 853.964 162.425L857.308 160.23C854.569 156.057 852.982 150.826 852.643 144.445L848.649 144.657ZM853.964 162.425C857.168 167.308 861.662 170.984 867.369 173.461L868.962 169.792C863.909 167.598 860.05 164.408 857.308 160.23L853.964 162.425ZM867.377 173.465C873.133 175.932 879.891 177.131 887.596 177.131V173.131C880.294 173.131 874.098 171.993 868.953 169.788L867.377 173.465ZM887.596 177.131C894.045 177.131 899.569 176.336 904.105 174.673L902.728 170.917C898.77 172.368 893.746 173.131 887.596 173.131V177.131ZM904.105 174.673C908.601 173.024 912.165 170.681 914.645 167.562L911.513 165.073C909.604 167.476 906.726 169.451 902.728 170.917L904.105 174.673ZM914.645 167.562C917.113 164.457 918.397 160.884 918.476 156.908L914.477 156.828C914.415 159.931 913.434 162.657 911.513 165.073L914.645 167.562ZM918.476 156.825C918.396 153.046 917.135 149.696 914.704 146.86L911.667 149.463C913.483 151.581 914.416 154.036 914.477 156.91L918.476 156.825ZM914.743 146.907C912.395 143.992 908.654 141.565 903.763 139.52L902.221 143.211C906.815 145.131 909.87 147.234 911.628 149.416L914.743 146.907ZM903.786 139.53C898.877 137.406 892.332 135.461 884.202 133.679L883.345 137.586C891.354 139.342 897.621 141.22 902.198 143.201L903.786 139.53ZM884.195 133.677L862.535 129.005L861.691 132.915L883.352 137.587L884.195 133.677ZM862.537 129.006C843.509 124.878 828.67 118.022 817.883 108.541L815.242 111.545C826.682 121.6 842.209 128.689 861.689 132.915L862.537 129.006ZM817.893 108.55C807.344 99.1505 802.036 86.3191 802.104 69.8095L798.104 69.7928C798.032 87.2604 803.695 101.257 815.232 111.536L817.893 108.55ZM802.104 69.7909C802.036 56.3725 805.606 44.7242 812.771 34.7618L809.523 32.4264C801.823 43.1335 798.032 55.6232 798.104 69.8114L802.104 69.7909ZM812.769 34.7639C820.038 24.6835 830.109 16.7903 843.061 11.1107L841.454 7.44747C827.932 13.3768 817.263 21.6936 809.525 32.4243L812.769 34.7639ZM843.057 11.1123C856.071 5.43628 871.045 2.57243 888.021 2.57243V-1.42757C870.595 -1.42757 855.06 1.51305 841.458 7.4459L843.057 11.1123ZM888.021 2.57243C905.357 2.57243 920.243 5.47363 932.738 11.2033L934.405 7.56732C921.275 1.54648 905.795 -1.42757 888.021 -1.42757V2.57243ZM932.738 11.2033C945.243 16.9378 954.809 24.9827 961.518 35.32L964.873 33.1424C957.708 22.1023 947.524 13.5833 934.405 7.56732L932.738 11.2033ZM961.526 35.3329C968.295 45.5891 971.744 57.6227 971.813 71.5099L975.813 71.4901C975.741 56.9213 972.111 44.109 964.865 33.1295L961.526 35.3329ZM973.813 69.5H917.326V73.5H973.813V69.5ZM1047.26 221V223H1048.75L1049.18 221.578L1047.26 221ZM983.555 221L981.656 220.373L980.789 223H983.555V221ZM1055.33 3.54545V1.54545H1053.89L1053.43 2.91856L1055.33 3.54545ZM1136.03 3.54545L1137.93 2.91856L1137.47 1.54545H1136.03V3.54545ZM1207.81 221V223H1210.57L1209.7 220.373L1207.81 221ZM1144.1 221L1142.18 221.578L1142.61 223H1144.1V221ZM1096.53 63.4304L1098.44 62.8524L1098.02 61.4304H1096.53V63.4304ZM1094.83 63.4304V61.4304H1093.35L1092.92 62.8524L1094.83 63.4304ZM1035.37 135.207V133.207H1033.37V135.207H1035.37ZM1155.14 135.207H1157.14V133.207H1155.14V135.207ZM1155.14 179.378V181.378H1157.14V179.378H1155.14ZM1035.37 179.378H1033.37V181.378H1035.37V179.378ZM1047.26 219H983.555V223H1047.26V219ZM985.454 221.627L1057.23 4.17234L1053.43 2.91856L981.656 220.373L985.454 221.627ZM1055.33 5.54545H1136.03V1.54545H1055.33V5.54545ZM1134.13 4.17234L1205.91 221.627L1209.7 220.373L1137.93 2.91856L1134.13 4.17234ZM1207.81 219H1144.1V223H1207.81V219ZM1146.01 220.422L1098.44 62.8524L1094.61 64.0084L1142.18 221.578L1146.01 220.422ZM1096.53 61.4304H1094.83V65.4304H1096.53V61.4304ZM1092.92 62.8524L1045.35 220.422L1049.18 221.578L1096.75 64.0084L1092.92 62.8524ZM1035.37 137.207H1155.14V133.207H1035.37V137.207ZM1153.14 135.207V179.378H1157.14V135.207H1153.14ZM1155.14 177.378H1035.37V181.378H1155.14V177.378ZM1037.37 179.378V135.207H1033.37V179.378H1037.37ZM1197.64 3.54545V1.54545H1194.3L1195.88 4.48975L1197.64 3.54545ZM1263.47 3.54545L1265.27 2.67886L1264.73 1.54545H1263.47V3.54545ZM1305.94 91.8864L1304.14 92.7529L1304.68 93.8864H1305.94V91.8864ZM1307.64 91.8864V93.8864H1308.9L1309.44 92.7529L1307.64 91.8864ZM1350.11 3.54545V1.54545H1348.85L1348.31 2.67886L1350.11 3.54545ZM1415.94 3.54545L1417.71 4.48975L1419.28 1.54545H1415.94V3.54545ZM1336.1 152.621L1334.33 151.676L1334.1 152.119V152.621H1336.1ZM1336.1 221V223H1338.1V221H1336.1ZM1277.49 221H1275.49V223H1277.49V221ZM1277.49 152.621H1279.49V152.119L1279.25 151.676L1277.49 152.621ZM1197.64 5.54545H1263.47V1.54545H1197.64V5.54545ZM1261.67 4.41204L1304.14 92.7529L1307.74 91.0198L1265.27 2.67886L1261.67 4.41204ZM1305.94 93.8864H1307.64V89.8864H1305.94V93.8864ZM1309.44 92.7529L1351.91 4.41204L1348.31 2.67886L1305.84 91.0198L1309.44 92.7529ZM1350.11 5.54545H1415.94V1.54545H1350.11V5.54545ZM1414.18 2.60114L1334.33 151.676L1337.86 153.565L1417.71 4.48975L1414.18 2.60114ZM1334.1 152.621V221H1338.1V152.621H1334.1ZM1336.1 219H1277.49V223H1336.1V219ZM1279.49 221V152.621H1275.49V221H1279.49ZM1279.25 151.676L1199.4 2.60114L1195.88 4.48975L1275.72 153.565L1279.25 151.676ZM1551.24 221V223H1552.73L1553.16 221.578L1551.24 221ZM1487.53 221L1485.63 220.373L1484.77 223H1487.53V221ZM1559.31 3.54545V1.54545H1557.86L1557.41 2.91856L1559.31 3.54545ZM1640.01 3.54545L1641.91 2.91856L1641.45 1.54545H1640.01V3.54545ZM1711.78 221V223H1714.55L1713.68 220.373L1711.78 221ZM1648.08 221L1646.16 221.578L1646.59 223H1648.08V221ZM1600.51 63.4304L1602.42 62.8524L1601.99 61.4304H1600.51V63.4304ZM1598.81 63.4304V61.4304H1597.32L1596.89 62.8524L1598.81 63.4304ZM1539.35 135.207V133.207H1537.35V135.207H1539.35ZM1659.12 135.207H1661.12V133.207H1659.12V135.207ZM1659.12 179.378V181.378H1661.12V179.378H1659.12ZM1539.35 179.378H1537.35V181.378H1539.35V179.378ZM1551.24 219H1487.53V223H1551.24V219ZM1489.43 221.627L1561.21 4.17234L1557.41 2.91856L1485.63 220.373L1489.43 221.627ZM1559.31 5.54545H1640.01V1.54545H1559.31V5.54545ZM1638.11 4.17234L1709.88 221.627L1713.68 220.373L1641.91 2.91856L1638.11 4.17234ZM1711.78 219H1648.08V223H1711.78V219ZM1649.99 220.422L1602.42 62.8524L1598.59 64.0084L1646.16 221.578L1649.99 220.422ZM1600.51 61.4304H1598.81V65.4304H1600.51V61.4304ZM1596.89 62.8524L1549.33 220.422L1553.16 221.578L1600.72 64.0084L1596.89 62.8524ZM1539.35 137.207H1659.12V133.207H1539.35V137.207ZM1657.12 135.207V179.378H1661.12V135.207H1657.12ZM1659.12 177.378H1539.35V181.378H1659.12V177.378ZM1541.35 179.378V135.207H1537.35V179.378H1541.35ZM1732.73 221H1730.73V223H1732.73V221ZM1732.73 3.54545V1.54545H1730.73V3.54545H1732.73ZM1868.74 10.2347L1868.01 12.0941L1868.01 12.0957L1868.74 10.2347ZM1894.33 29.1346L1892.7 30.2863L1892.7 30.2957L1894.33 29.1346ZM1897.73 79.782L1895.97 78.8349L1895.96 78.8423L1895.96 78.8497L1897.73 79.782ZM1883.08 96.3459L1884.22 97.9869L1884.23 97.9826L1884.23 97.9783L1883.08 96.3459ZM1860.99 105.477L1860.6 103.517L1858.99 103.84V105.477H1860.99ZM1860.99 107.601H1858.99V109.527L1860.92 109.599L1860.99 107.601ZM1886.47 114.715L1885.48 116.449L1885.49 116.456L1886.47 114.715ZM1904.74 132.659L1903.02 133.679L1903.02 133.686L1904.74 132.659ZM1902.19 191.164L1900.53 190.048L1900.52 190.057L1902.19 191.164ZM1875.86 213.037L1875.01 211.224L1875.86 213.037ZM1791.76 173.857H1789.76V175.857H1791.76V173.857ZM1841.67 168.335L1842.86 169.941L1842.87 169.935L1842.87 169.93L1841.67 168.335ZM1835.61 130.748L1834.82 132.583L1834.83 132.588L1835.61 130.748ZM1791.76 127.987V125.987H1789.76V127.987H1791.76ZM1791.76 91.4616H1789.76V93.4616H1791.76V91.4616ZM1829.67 89.0195L1830.43 90.8696L1829.67 89.0195ZM1838.91 82.0117L1837.29 80.8354L1837.28 80.8421L1838.91 82.0117ZM1835.08 55.2546L1833.88 56.8546L1833.89 56.8603L1833.9 56.8659L1835.08 55.2546ZM1791.76 49.8395V47.8395H1789.76V49.8395H1791.76ZM1734.73 221V3.54545H1730.73V221H1734.73ZM1732.73 5.54545H1827.01V1.54545H1732.73V5.54545ZM1827.01 5.54545C1843.41 5.54545 1857.05 7.75485 1868.01 12.0941L1869.48 8.37537C1857.92 3.79557 1843.74 1.54545 1827.01 1.54545V5.54545ZM1868.01 12.0957C1879.05 16.4441 1887.23 22.5302 1892.7 30.2863L1895.97 27.9829C1889.96 19.4582 1881.08 12.9444 1869.48 8.37379L1868.01 12.0957ZM1892.7 30.2957C1898.24 38.0618 1901.04 47.2372 1901.04 57.9091H1905.04C1905.04 46.4958 1902.03 36.4881 1895.96 27.9734L1892.7 30.2957ZM1901.04 57.9091C1901.04 65.6012 1899.34 72.5632 1895.97 78.8349L1899.49 80.729C1903.2 73.8345 1905.04 66.2146 1905.04 57.9091H1901.04ZM1895.96 78.8497C1892.64 85.1438 1887.97 90.4288 1881.92 94.7135L1884.23 97.9783C1890.78 93.3439 1895.88 87.5863 1899.5 80.7142L1895.96 78.8497ZM1881.93 94.7048C1875.88 98.9193 1868.78 101.866 1860.6 103.517L1861.39 107.438C1870.05 105.691 1877.67 102.55 1884.22 97.9869L1881.93 94.7048ZM1858.99 105.477V107.601H1862.99V105.477H1858.99ZM1860.92 109.599C1869.96 109.942 1878.13 112.232 1885.48 116.449L1887.47 112.98C1879.53 108.421 1870.71 105.968 1861.07 105.602L1860.92 109.599ZM1885.49 116.456C1892.83 120.6 1898.66 126.331 1903.02 133.679L1906.46 131.639C1901.75 123.698 1895.41 117.466 1887.46 112.973L1885.49 116.456ZM1903.02 133.686C1907.34 140.902 1909.53 149.454 1909.53 159.416H1913.53C1913.53 148.85 1911.2 139.564 1906.45 131.632L1903.02 133.686ZM1909.53 159.416C1909.53 170.938 1906.52 181.127 1900.53 190.048L1903.85 192.279C1910.31 182.655 1913.53 171.679 1913.53 159.416H1909.53ZM1900.52 190.057C1894.59 198.985 1886.12 206.049 1875.01 211.224L1876.7 214.85C1888.39 209.406 1897.47 201.888 1903.86 192.27L1900.52 190.057ZM1875.01 211.224C1863.94 216.382 1850.65 219 1835.08 219V223C1851.09 223 1864.98 220.309 1876.7 214.85L1875.01 211.224ZM1835.08 219H1732.73V223H1835.08V219ZM1791.76 175.857H1819.37V171.857H1791.76V175.857ZM1819.37 175.857C1829.47 175.857 1837.41 173.991 1842.86 169.941L1840.47 166.73C1836.02 170.041 1829.09 171.857 1819.37 171.857V175.857ZM1842.87 169.93C1848.42 165.732 1851.1 159.566 1851.1 151.771H1847.1C1847.1 158.558 1844.83 163.435 1840.46 166.741L1842.87 169.93ZM1851.1 151.771C1851.1 146.363 1849.86 141.643 1847.27 137.716L1843.93 139.919C1846.01 143.071 1847.1 146.986 1847.1 151.771H1851.1ZM1847.27 137.716C1844.69 133.814 1841.04 130.885 1836.4 128.908L1834.83 132.588C1838.83 134.291 1841.83 136.742 1843.93 139.919L1847.27 137.716ZM1836.41 128.913C1831.85 126.936 1826.43 125.987 1820.22 125.987V129.987C1826.04 129.987 1830.89 130.879 1834.82 132.583L1836.41 128.913ZM1820.22 125.987H1791.76V129.987H1820.22V125.987ZM1789.76 127.987V173.857H1793.76V127.987H1789.76ZM1791.76 93.4616H1815.97V89.4616H1791.76V93.4616ZM1815.97 93.4616C1821.35 93.4616 1826.18 92.6148 1830.43 90.8696L1828.91 87.1695C1825.23 88.6804 1820.93 89.4616 1815.97 89.4616V93.4616ZM1830.43 90.8696C1834.69 89.1203 1838.09 86.5692 1840.53 83.1813L1837.28 80.8421C1835.34 83.5418 1832.58 85.6626 1828.91 87.1695L1830.43 90.8696ZM1840.52 83.1881C1843.08 79.6796 1844.3 75.4636 1844.3 70.6506H1840.3C1840.3 74.7566 1839.27 78.1146 1837.29 80.8354L1840.52 83.1881ZM1844.3 70.6506C1844.3 63.3816 1841.66 57.6108 1836.27 53.6433L1833.9 56.8659C1838.13 59.977 1840.3 64.4702 1840.3 70.6506H1844.3ZM1836.28 53.6546C1831.05 49.7312 1824.52 47.8395 1816.82 47.8395V51.8395C1823.85 51.8395 1829.49 53.5578 1833.88 56.8546L1836.28 53.6546ZM1816.82 47.8395H1791.76V51.8395H1816.82V47.8395ZM1789.76 49.8395V91.4616H1793.76V49.8395H1789.76ZM2128.99 173.538L2130.73 174.526L2130.73 174.523L2128.99 173.538ZM2090.87 211.232L2091.81 212.998L2091.81 212.995L2090.87 211.232ZM1983.63 211.125L1982.68 212.884L1982.68 212.889L1983.63 211.125ZM1945.62 173.326L1943.87 174.305L1943.88 174.314L1945.62 173.326ZM1945.62 51.1136L1943.88 50.1285L1943.87 50.131L1945.62 51.1136ZM1983.63 13.4201L1984.57 15.1848L1984.57 15.1833L1983.63 13.4201ZM2090.87 13.4201L2089.93 15.1833L2089.93 15.1865L2090.87 13.4201ZM2128.99 51.1136L2127.25 52.0987L2127.25 52.1019L2128.99 51.1136ZM2077.17 79.3572L2075.3 80.0643L2075.3 80.0733L2075.31 80.0821L2077.17 79.3572ZM2061.99 58.9709L2060.84 60.6077L2060.85 60.6147L2060.86 60.6215L2061.99 58.9709ZM2012.62 58.9709L2013.75 60.6159L2013.76 60.6134L2012.62 58.9709ZM1997.43 79.3572L1995.57 78.6373L1995.56 78.6452L1997.43 79.3572ZM1997.43 145.294L1995.56 146.001L1995.56 146.01L1995.57 146.019L1997.43 145.294ZM2012.62 165.681L2011.47 167.318L2011.48 167.325L2011.49 167.331L2012.62 165.681ZM2061.99 165.681L2063.13 167.326L2063.13 167.323L2061.99 165.681ZM2077.17 145.294L2075.31 144.574L2075.3 144.582L2077.17 145.294ZM2141.11 112.273C2141.11 136.227 2136.45 156.289 2127.25 172.553L2130.73 174.523C2140.35 157.518 2145.11 136.736 2145.11 112.273H2141.11ZM2127.25 172.55C2118.01 188.803 2105.57 201.09 2089.93 209.468L2091.81 212.995C2108.16 204.242 2121.14 191.401 2130.73 174.526L2127.25 172.55ZM2089.93 209.465C2074.25 217.793 2056.74 221.973 2037.35 221.973V225.973C2057.33 225.973 2075.5 221.659 2091.81 212.998L2089.93 209.465ZM2037.35 221.973C2017.83 221.973 2000.25 217.758 1984.57 209.362L1982.68 212.889C1999 221.623 2017.24 225.973 2037.35 225.973V221.973ZM1984.58 209.367C1969 200.919 1956.59 188.594 1947.36 172.337L1943.88 174.314C1953.47 191.185 1966.4 204.06 1982.68 212.884L1984.58 209.367ZM1947.36 172.346C1938.22 156.079 1933.6 136.085 1933.6 112.273H1929.6C1929.6 136.595 1934.32 157.303 1943.87 174.305L1947.36 172.346ZM1933.6 112.273C1933.6 88.3161 1938.22 68.2892 1947.36 52.0963L1943.87 50.131C1934.32 67.0659 1929.6 87.8117 1929.6 112.273H1933.6ZM1947.36 52.0987C1956.6 35.7741 1969 23.4897 1984.57 15.1848L1982.69 11.6554C1966.41 20.3391 1953.47 33.1837 1943.88 50.1285L1947.36 52.0987ZM1984.57 15.1833C2000.25 6.78768 2017.83 2.57243 2037.35 2.57243V-1.42757C2017.24 -1.42757 1999 2.9223 1982.68 11.6569L1984.57 15.1833ZM2037.35 2.57243C2056.73 2.57243 2074.24 6.78656 2089.93 15.1833L2091.81 11.6569C2075.5 2.92341 2057.33 -1.42757 2037.35 -1.42757V2.57243ZM2089.93 15.1865C2105.57 23.4921 2118.01 35.7764 2127.25 52.0987L2130.73 50.1285C2121.14 33.1815 2108.16 20.3367 2091.81 11.6537L2089.93 15.1865ZM2127.25 52.1019C2136.45 68.2936 2141.11 88.3184 2141.11 112.273H2145.11C2145.11 87.8095 2140.35 67.0615 2130.73 50.1254L2127.25 52.1019ZM2084.38 112.273C2084.38 99.0839 2082.62 87.8495 2079.04 78.6324L2075.31 80.0821C2078.66 88.7031 2080.38 99.4123 2080.38 112.273H2084.38ZM2079.04 78.6502C2075.53 69.3478 2070.24 62.1917 2063.12 57.3203L2060.86 60.6215C2067.19 64.9522 2072.02 71.387 2075.3 80.0643L2079.04 78.6502ZM2063.14 57.334C2056.08 52.3815 2047.45 49.9631 2037.35 49.9631V53.9631C2046.8 53.9631 2054.59 56.2165 2060.84 60.6077L2063.14 57.334ZM2037.35 49.9631C2027.26 49.9631 2018.59 52.3817 2011.47 57.3284L2013.76 60.6134C2020.09 56.2163 2027.91 53.9631 2037.35 53.9631V49.9631ZM2011.48 57.3259C2004.43 62.196 1999.15 69.346 1995.57 78.6373L1999.3 80.0772C2002.65 71.3889 2007.49 64.9479 2013.75 60.6159L2011.48 57.3259ZM1995.56 78.6452C1992.05 87.858 1990.34 99.0876 1990.34 112.273H1994.34C1994.34 99.4086 1996.01 88.6945 1999.3 80.0692L1995.56 78.6452ZM1990.34 112.273C1990.34 125.459 1992.05 136.721 1995.56 146.001L1999.3 144.587C1996.01 135.888 1994.34 125.136 1994.34 112.273H1990.34ZM1995.57 146.019C1999.15 155.24 2004.44 162.381 2011.47 167.318L2013.76 164.044C2007.49 159.637 2002.65 153.187 1999.3 144.569L1995.57 146.019ZM2011.49 167.331C2018.6 172.202 2027.27 174.582 2037.35 174.582V170.582C2027.91 170.582 2020.08 168.362 2013.74 164.03L2011.49 167.331ZM2037.35 174.582C2047.44 174.582 2056.07 172.202 2063.13 167.326L2060.85 164.036C2054.6 168.361 2046.8 170.582 2037.35 170.582V174.582ZM2063.13 167.323C2070.24 162.385 2075.52 155.238 2079.04 146.006L2075.3 144.582C2072.02 153.189 2067.19 159.632 2060.85 164.038L2063.13 167.323ZM2079.04 146.014C2082.62 136.73 2084.38 125.462 2084.38 112.273H2080.38C2080.38 125.132 2078.66 135.88 2075.31 144.574L2079.04 146.014ZM2299.11 3.54545V1.54545H2297.11V3.54545H2299.11ZM2358.15 3.54545H2360.15V1.54545H2358.15V3.54545ZM2346.26 185.855L2344.58 184.759L2344.58 184.761L2346.26 185.855ZM2313.34 213.78L2314.18 215.595L2314.19 215.592L2313.34 213.78ZM2215.02 213.78L2214.17 215.592L2214.18 215.595L2215.02 213.78ZM2182.1 185.855L2180.42 186.937L2180.43 186.948L2182.1 185.855ZM2170.42 3.54545V1.54545H2168.42V3.54545H2170.42ZM2229.46 3.54545H2231.46V1.54545H2229.46V3.54545ZM2233.92 155.806L2232.17 156.783L2232.18 156.793L2233.92 155.806ZM2246.24 168.123L2245.25 169.862L2245.26 169.868L2246.24 168.123ZM2282.34 168.123L2283.32 169.862L2282.34 168.123ZM2294.65 155.806L2296.39 156.793L2296.4 156.783L2294.65 155.806ZM2299.11 5.54545H2358.15V1.54545H2299.11V5.54545ZM2356.15 3.54545V142.852H2360.15V3.54545H2356.15ZM2356.15 142.852C2356.15 159.085 2352.27 173.025 2344.58 184.759L2347.93 186.951C2356.1 174.475 2360.15 159.748 2360.15 142.852H2356.15ZM2344.58 184.761C2336.94 196.458 2326.27 205.529 2312.49 211.968L2314.19 215.592C2328.58 208.864 2339.85 199.319 2347.93 186.948L2344.58 184.761ZM2312.5 211.964C2298.73 218.333 2282.67 221.548 2264.29 221.548V225.548C2283.14 225.548 2299.78 222.251 2314.18 215.595L2312.5 211.964ZM2264.29 221.548C2245.76 221.548 2229.63 218.332 2215.86 211.964L2214.18 215.595C2228.58 222.252 2245.3 225.548 2264.29 225.548V221.548ZM2215.87 211.968C2202.09 205.529 2191.42 196.458 2183.78 184.761L2180.43 186.948C2188.51 199.319 2199.78 208.864 2214.17 215.592L2215.87 211.968ZM2183.79 184.773C2176.24 173.038 2172.42 159.092 2172.42 142.852H2168.42C2168.42 159.741 2172.4 174.463 2180.42 186.937L2183.79 184.773ZM2172.42 142.852V3.54545H2168.42V142.852H2172.42ZM2170.42 5.54545H2229.46V1.54545H2170.42V5.54545ZM2227.46 3.54545V137.756H2231.46V3.54545H2227.46ZM2227.46 137.756C2227.46 144.786 2229.02 151.145 2232.17 156.783L2235.66 154.829C2232.88 149.849 2231.46 144.175 2231.46 137.756H2227.46ZM2232.18 156.793C2235.33 162.346 2239.7 166.711 2245.25 169.862L2247.22 166.383C2242.3 163.589 2238.45 159.743 2235.66 154.819L2232.18 156.793ZM2245.26 169.868C2250.9 173.025 2257.26 174.582 2264.29 174.582V170.582C2257.87 170.582 2252.19 169.167 2247.21 166.378L2245.26 169.868ZM2264.29 174.582C2271.38 174.582 2277.75 173.027 2283.32 169.862L2281.35 166.383C2276.45 169.165 2270.78 170.582 2264.29 170.582V174.582ZM2283.32 169.862C2288.88 166.711 2293.24 162.346 2296.39 156.793L2292.91 154.819C2290.12 159.743 2286.27 163.589 2281.35 166.383L2283.32 169.862ZM2296.4 156.783C2299.56 151.145 2301.11 144.786 2301.11 137.756H2297.11C2297.11 144.175 2295.7 149.849 2292.91 154.829L2296.4 156.783ZM2301.11 137.756V3.54545H2297.11V137.756H2301.11ZM2380.26 51.1136H2378.26V53.1136H2380.26V51.1136ZM2380.26 3.54545V1.54545H2378.26V3.54545H2380.26ZM2569.26 3.54545H2571.26V1.54545H2569.26V3.54545ZM2569.26 51.1136V53.1136H2571.26V51.1136H2569.26ZM2503.85 51.1136V49.1136H2501.85V51.1136H2503.85ZM2503.85 221V223H2505.85V221H2503.85ZM2445.67 221H2443.67V223H2445.67V221ZM2445.67 51.1136H2447.67V49.1136H2445.67V51.1136ZM2382.26 51.1136V3.54545H2378.26V51.1136H2382.26ZM2380.26 5.54545H2569.26V1.54545H2380.26V5.54545ZM2567.26 3.54545V51.1136H2571.26V3.54545H2567.26ZM2569.26 49.1136H2503.85V53.1136H2569.26V49.1136ZM2501.85 51.1136V221H2505.85V51.1136H2501.85ZM2503.85 219H2445.67V223H2503.85V219ZM2447.67 221V51.1136H2443.67V221H2447.67ZM2445.67 49.1136H2380.26V53.1136H2445.67V49.1136ZM2651.04 3.54545V1.54545H2649.04V3.54545H2651.04ZM2724.52 3.54545L2726.37 2.78619L2725.86 1.54545H2724.52V3.54545ZM2775.06 126.713L2773.21 127.472L2773.72 128.713H2775.06V126.713ZM2777.61 126.713V128.713H2778.95L2779.46 127.472L2777.61 126.713ZM2828.15 3.54545V1.54545H2826.81L2826.3 2.78619L2828.15 3.54545ZM2901.63 3.54545H2903.63V1.54545H2901.63V3.54545ZM2901.63 221V223H2903.63V221H2901.63ZM2843.86 221H2841.86V223H2843.86V221ZM2843.86 95.2841H2845.86V93.2841H2843.86V95.2841ZM2842.17 95.2841V93.2841H2840.8L2840.3 94.5567L2842.17 95.2841ZM2793.75 219.301V221.301H2795.11L2795.61 220.029L2793.75 219.301ZM2758.92 219.301L2757.06 220.024L2757.55 221.301H2758.92V219.301ZM2710.5 94.4347L2712.37 93.7116L2711.87 92.4347H2710.5V94.4347ZM2708.8 94.4347V92.4347H2706.8V94.4347H2708.8ZM2708.8 221V223H2710.8V221H2708.8ZM2651.04 221H2649.04V223H2651.04V221ZM2651.04 5.54545H2724.52V1.54545H2651.04V5.54545ZM2722.67 4.3047L2773.21 127.472L2776.91 125.954L2726.37 2.78619L2722.67 4.3047ZM2775.06 128.713H2777.61V124.713H2775.06V128.713ZM2779.46 127.472L2830 4.3047L2826.3 2.78619L2775.76 125.954L2779.46 127.472ZM2828.15 5.54545H2901.63V1.54545H2828.15V5.54545ZM2899.63 3.54545V221H2903.63V3.54545H2899.63ZM2901.63 219H2843.86V223H2901.63V219ZM2845.86 221V95.2841H2841.86V221H2845.86ZM2843.86 93.2841H2842.17V97.2841H2843.86V93.2841ZM2840.3 94.5567L2791.88 218.574L2795.61 220.029L2844.03 96.0114L2840.3 94.5567ZM2793.75 217.301H2758.92V221.301H2793.75V217.301ZM2760.79 218.578L2712.37 93.7116L2708.64 95.1577L2757.06 220.024L2760.79 218.578ZM2710.5 92.4347H2708.8V96.4347H2710.5V92.4347ZM2706.8 94.4347V221H2710.8V94.4347H2706.8ZM2708.8 219H2651.04V223H2708.8V219ZM2653.04 221V3.54545H2649.04V221H2653.04ZM2929.6 221H2927.6V223H2929.6V221ZM2929.6 3.54545V1.54545H2927.6V3.54545H2929.6ZM3086.32 3.54545H3088.32V1.54545H3086.32V3.54545ZM3086.32 51.1136V53.1136H3088.32V51.1136H3086.32ZM2988.64 51.1136V49.1136H2986.64V51.1136H2988.64ZM2988.64 88.4886H2986.64V90.4886H2988.64V88.4886ZM3078.25 88.4886H3080.25V86.4886H3078.25V88.4886ZM3078.25 136.057V138.057H3080.25V136.057H3078.25ZM2988.64 136.057V134.057H2986.64V136.057H2988.64ZM2988.64 173.432H2986.64V175.432H2988.64V173.432ZM3085.9 173.432H3087.9V171.432H3085.9V173.432ZM3085.9 221V223H3087.9V221H3085.9ZM2931.6 221V3.54545H2927.6V221H2931.6ZM2929.6 5.54545H3086.32V1.54545H2929.6V5.54545ZM3084.32 3.54545V51.1136H3088.32V3.54545H3084.32ZM3086.32 49.1136H2988.64V53.1136H3086.32V49.1136ZM2986.64 51.1136V88.4886H2990.64V51.1136H2986.64ZM2988.64 90.4886H3078.25V86.4886H2988.64V90.4886ZM3076.25 88.4886V136.057H3080.25V88.4886H3076.25ZM3078.25 134.057H2988.64V138.057H3078.25V134.057ZM2986.64 136.057V173.432H2990.64V136.057H2986.64ZM2988.64 175.432H3085.9V171.432H2988.64V175.432ZM3083.9 173.432V221H3087.9V173.432H3083.9ZM3085.9 219H2929.6V223H3085.9V219Z" fill="#E6E6E6"/>
</svg>
