<svg width="15" height="15" viewBox="0 0 15 15" fill="none" xmlns="http://www.w3.org/2000/svg">
<path d="M6.54894 1.45665C6.8483 0.535341 8.1517 0.535342 8.45106 1.45665L9.52063 4.74845C9.6545 5.16047 10.0385 5.43943 10.4717 5.43943H13.9329C14.9016 5.43943 15.3044 6.67905 14.5207 7.24845L11.7205 9.28289C11.37 9.53754 11.2234 9.9889 11.3572 10.4009L12.4268 13.6927C12.7261 14.614 11.6717 15.3802 10.888 14.8108L8.08779 12.7763C7.7373 12.5217 7.2627 12.5217 6.91221 12.7763L4.11204 14.8108C3.32833 15.3802 2.27385 14.614 2.5732 13.6927L3.64277 10.4009C3.77665 9.9889 3.62999 9.53753 3.2795 9.28289L0.479333 7.24845C-0.304381 6.67905 0.0983948 5.43943 1.06712 5.43943H4.52832C4.96154 5.43943 5.3455 5.16047 5.47937 4.74845L6.54894 1.45665Z" fill="#FFA722"/>
</svg>
