<svg width="862" height="238" viewBox="0 0 862 238" fill="none" xmlns="http://www.w3.org/2000/svg">
<path d="M1.08105 236.919V1.08105H102.867C120.364 1.08105 135.678 4.54004 148.81 11.4472C161.941 18.3544 172.143 28.072 179.438 40.5784C186.733 53.0956 190.375 67.7206 190.375 84.4535C190.375 101.348 186.636 115.974 179.146 128.329C171.668 140.694 161.184 150.207 147.718 156.887C134.252 163.567 118.527 166.907 100.565 166.907H85.1639V117.163H87.6712C95.1933 117.163 101.624 115.844 106.952 113.196C112.291 110.547 116.398 106.764 119.273 101.857C122.147 96.9491 123.585 91.1445 123.585 84.4643C123.585 77.7085 122.147 71.9363 119.273 67.1369C116.398 62.3376 112.291 58.6516 106.952 56.079C101.613 53.5063 95.1933 52.22 87.6712 52.22H65.0942V236.93H1.08105V236.919Z" stroke="#F4F4F4" stroke-width="2"/>
<path d="M213.86 236.919V1.08105H277.873V185.326H373.207V236.919H213.86V236.919Z" stroke="#F4F4F4" stroke-width="2"/>
<path d="M460.251 236.919H391.169L468.994 1.08105H556.503L634.339 236.919H565.257L513.673 66.0236H511.825L460.251 236.919Z" stroke="#F4F4F4" stroke-width="2"/>
<path d="M860.92 1.08105V236.919H807.498L722.302 113.012H720.918V236.919H656.905V1.08105H711.246L795.069 124.524H796.917V1.08105H860.92Z" stroke="#F4F4F4" stroke-width="2"/>
</svg>
