<svg width="139" height="29" viewBox="0 0 139 29" fill="none" xmlns="http://www.w3.org/2000/svg">
<path d="M13.0489 3.61333C13.3483 2.69202 14.6517 2.69202 14.9511 3.61333L16.9187 9.66906C17.0526 10.0811 17.4365 10.36 17.8697 10.36H24.2371C25.2058 10.36 25.6086 11.5997 24.8249 12.1691L19.6736 15.9117C19.3231 16.1663 19.1764 16.6177 19.3103 17.0297L21.2779 23.0855C21.5773 24.0068 20.5228 24.7729 19.7391 24.2035L14.5878 20.4609C14.2373 20.2062 13.7627 20.2062 13.4122 20.4609L8.2609 24.2035C7.47719 24.7729 6.42271 24.0068 6.72206 23.0855L8.68969 17.0297C8.82356 16.6177 8.6769 16.1663 8.32642 15.9117L3.17511 12.1691C2.39139 11.5997 2.79417 10.36 3.76289 10.36H10.1303C10.5635 10.36 10.9474 10.0811 11.0813 9.66906L13.0489 3.61333Z" fill="#FFA722"/>
<path d="M68.5457 3.73196C68.8386 2.79727 70.1614 2.79727 70.4543 3.73196L72.3113 9.65903C72.442 10.0761 72.8284 10.36 73.2656 10.36H79.3503C80.3101 10.36 80.7187 11.5811 79.952 12.1587L74.9676 15.9143C74.6298 16.1688 74.4886 16.6083 74.6151 17.0119L76.5041 23.041C76.7948 23.9687 75.7245 24.7237 74.9481 24.1386L70.1018 20.4872C69.7455 20.2188 69.2545 20.2188 68.8982 20.4872L64.0519 24.1386C63.2755 24.7237 62.2052 23.9687 62.4959 23.041L64.3849 17.0119C64.5114 16.6083 64.3702 16.1688 64.0324 15.9143L59.048 12.1587C58.2813 11.5811 58.6899 10.36 59.6497 10.36H65.7344C66.1716 10.36 66.558 10.0761 66.6887 9.65902L68.5457 3.73196Z" fill="#FFA722"/>
<path d="M125 3.92235L126.968 9.97808C127.235 10.8021 128.003 11.36 128.87 11.36H135.237L130.086 15.1027C129.385 15.612 129.092 16.5147 129.359 17.3388L131.327 23.3945L126.176 19.6518C125.475 19.1425 124.525 19.1425 123.824 19.6518L118.673 23.3945L120.641 17.3388C120.908 16.5147 120.615 15.612 119.914 15.1027L114.763 11.36L121.13 11.36C121.997 11.36 122.765 10.8021 123.032 9.97807L125 3.92235Z" stroke="#FFA722" stroke-width="2"/>
<path d="M41.0489 3.61333C41.3483 2.69202 42.6517 2.69202 42.9511 3.61333L44.9187 9.66906C45.0526 10.0811 45.4365 10.36 45.8697 10.36H52.2371C53.2058 10.36 53.6086 11.5997 52.8249 12.1691L47.6736 15.9117C47.3231 16.1663 47.1764 16.6177 47.3103 17.0297L49.2779 23.0855C49.5773 24.0068 48.5228 24.7729 47.7391 24.2035L42.5878 20.4609C42.2373 20.2062 41.7627 20.2062 41.4122 20.4609L36.2609 24.2035C35.4772 24.7729 34.4227 24.0068 34.7221 23.0855L36.6897 17.0297C36.8236 16.6177 36.6769 16.1663 36.3264 15.9117L31.1751 12.1691C30.3914 11.5997 30.7942 10.36 31.7629 10.36H38.1303C38.5635 10.36 38.9474 10.0811 39.0813 9.66906L41.0489 3.61333Z" fill="#FFA722"/>
<path d="M96.0489 3.61333C96.3483 2.69202 97.6517 2.69202 97.9511 3.61333L99.9187 9.66906C100.053 10.0811 100.437 10.36 100.87 10.36H107.237C108.206 10.36 108.609 11.5997 107.825 12.1691L102.674 15.9117C102.323 16.1663 102.176 16.6177 102.31 17.0297L104.278 23.0855C104.577 24.0068 103.523 24.7729 102.739 24.2035L97.5878 20.4609C97.2373 20.2062 96.7627 20.2062 96.4122 20.4609L91.2609 24.2035C90.4772 24.7729 89.4227 24.0068 89.7221 23.0855L91.6897 17.0297C91.8236 16.6177 91.6769 16.1663 91.3264 15.9117L86.1751 12.1691C85.3914 11.5997 85.7942 10.36 86.7629 10.36H93.1303C93.5635 10.36 93.9474 10.0811 94.0813 9.66906L96.0489 3.61333Z" fill="#FFA722"/>
<mask id="mask0_11_3886" style="mask-type:alpha" maskUnits="userSpaceOnUse" x="113" y="2" width="24" height="23">
<path d="M124.039 3.24077C124.339 2.31946 125.642 2.31946 125.941 3.24077L127.911 9.30333C128.045 9.71535 128.429 9.99431 128.862 9.99431H135.237C136.206 9.99431 136.608 11.2339 135.825 11.8033L130.668 15.5502C130.317 15.8048 130.17 16.2562 130.304 16.6682L132.274 22.7308C132.573 23.6521 131.519 24.4182 130.735 23.8488L125.578 20.102C125.228 19.8473 124.753 19.8473 124.403 20.102L119.245 23.8488C118.462 24.4182 117.407 23.6521 117.707 22.7308L119.676 16.6682C119.81 16.2562 119.664 15.8048 119.313 15.5502L114.156 11.8033C113.372 11.2339 113.775 9.99431 114.744 9.99431H121.118C121.552 9.99431 121.936 9.71535 122.069 9.30333L124.039 3.24077Z" fill="#FFA722"/>
</mask>
<g mask="url(#mask0_11_3886)">
<rect x="113.728" y="0.863281" width="10.9881" height="25.2727" rx="1" fill="#FFA722"/>
</g>
</svg>
