<svg width="925" height="227" viewBox="0 0 925 227" fill="none" xmlns="http://www.w3.org/2000/svg">
<path d="M74.8003 3.98047V222.16H25.3703L-53.4597 107.53H-54.7397V222.16H-113.97V3.98047H-63.6897L13.8703 118.19H15.5803V3.98047H74.8003Z" stroke="#F4F4F4" stroke-width="2"/>
<path d="M96.9609 51.7105V3.98047H286.591V51.7105H220.971V222.17H162.591V51.7105H96.9609Z" stroke="#F4F4F4" stroke-width="2"/>
<path d="M713.15 85.8H653.07C652.64 80.83 651.53 76.32 649.71 72.27C647.9 68.22 645.41 64.72 642.25 61.78C639.09 58.83 635.27 56.56 630.8 54.96C626.33 53.36 621.25 52.56 615.57 52.56C605.63 52.56 597.23 54.97 590.37 59.8C583.51 64.63 578.33 71.55 574.82 80.57C571.3 89.59 569.55 100.42 569.55 113.06C569.55 126.41 571.34 137.58 574.93 146.56C578.52 155.55 583.72 162.29 590.54 166.8C597.36 171.31 605.56 173.56 615.15 173.56C620.62 173.56 625.52 172.87 629.85 171.48C634.18 170.09 637.95 168.09 641.14 165.46C644.34 162.83 646.95 159.65 648.97 155.92C650.99 152.19 652.36 147.98 653.07 143.3L713.15 143.73C712.44 152.96 709.85 162.36 705.37 171.91C700.9 181.46 694.56 190.27 686.35 198.33C678.15 206.39 668.01 212.87 655.93 217.77C643.85 222.67 629.83 225.12 613.85 225.12C593.82 225.12 575.87 220.82 560 212.23C544.13 203.64 531.59 191 522.39 174.3C513.19 157.61 508.59 137.19 508.59 113.04C508.59 88.75 513.28 68.28 522.65 51.62C532.03 34.97 544.67 22.36 560.58 13.8C576.5 5.28 594.26 1 613.86 1C627.64 1 640.32 2.88 651.89 6.65C663.47 10.42 673.62 15.9 682.36 23.11C691.1 30.32 698.13 39.18 703.45 49.69C708.78 60.2 712.01 72.24 713.15 85.8Z" stroke="#F4F4F4" stroke-width="2"/>
<path d="M734.029 51.7105V3.98047H923.659V51.7105H858.039V222.17H799.659V51.7105H734.029Z" stroke="#F4F4F4" stroke-width="2"/>
<path d="M346.881 222.16H282.961L354.981 3.98047H435.951L507.971 222.16H444.051L396.321 64.0605H394.621L346.881 222.16Z" stroke="#F4F4F4" stroke-width="2"/>
</svg>
