<svg width="1920" height="257" viewBox="0 0 1920 257" fill="none" xmlns="http://www.w3.org/2000/svg">
<path d="M748.72 239.18V20.99H902.13V68.72H807.95V106.22H892.75V153.95H807.95V239.18H748.72V239.18Z" stroke="#F4F4F4" stroke-width="2"/>
<path d="M953.27 239.18H889.35L961.36 20.99H1042.33L1114.35 239.17H1050.43L1002.7 81.07H1000.99L953.27 239.18Z" stroke="#F4F4F4" stroke-width="2"/>
<path d="M1328.69 102.81H1268.61C1268.18 97.84 1267.07 93.33 1265.25 89.28C1263.44 85.23 1260.95 81.74 1257.79 78.79C1254.63 75.84 1250.81 73.57 1246.34 71.97C1241.87 70.37 1236.79 69.57 1231.11 69.57C1221.17 69.57 1212.77 71.99 1205.91 76.81C1199.05 81.64 1193.87 88.57 1190.36 97.58C1186.84 106.6 1185.09 117.43 1185.09 130.07C1185.09 143.42 1186.88 154.59 1190.47 163.57C1194.06 172.56 1199.26 179.3 1206.08 183.81C1212.9 188.32 1221.1 190.58 1230.69 190.58C1236.16 190.58 1241.06 189.89 1245.39 188.5C1249.72 187.12 1253.49 185.11 1256.68 182.48C1259.88 179.85 1262.49 176.67 1264.51 172.95C1266.53 169.22 1267.9 165.01 1268.61 160.33L1328.69 160.76C1327.98 169.99 1325.39 179.39 1320.91 188.94C1316.44 198.49 1310.1 207.3 1301.89 215.36C1293.69 223.42 1283.55 229.9 1271.47 234.8C1259.39 239.7 1245.37 242.15 1229.39 242.15C1209.36 242.15 1191.41 237.85 1175.54 229.26C1159.67 220.67 1147.13 208.02 1137.93 191.33C1128.73 174.64 1124.13 154.22 1124.13 130.07C1124.13 105.78 1128.82 85.31 1138.19 68.65C1147.58 52.01 1160.22 39.41 1176.13 30.85C1192.04 22.29 1209.8 18.01 1229.4 18.01C1243.18 18.01 1255.86 19.89 1267.43 23.66C1279.01 27.43 1289.16 32.91 1297.9 40.12C1306.64 47.33 1313.67 56.19 1318.99 66.7C1324.32 77.21 1327.55 89.25 1328.69 102.81Z" stroke="#F4F4F4" stroke-width="2"/>
<path d="M1414.77 20.99V239.17H1355.54V20.99H1414.77Z" stroke="#F4F4F4" stroke-width="2"/>
<path d="M1442.89 239.18V20.99H1502.12V191.44H1590.33V239.17H1442.89V239.18Z" stroke="#F4F4F4" stroke-width="2"/>
<path d="M1673.43 20.99V239.17H1614.2V20.99H1673.43Z" stroke="#F4F4F4" stroke-width="2"/>
<path d="M1695.58 68.72V20.99H1885.21V68.72H1819.59V239.17H1761.21V68.72H1695.58Z" stroke="#F4F4F4" stroke-width="2"/>
<path d="M1966.6 20.99V239.17H1907.37V20.99H1966.6Z" stroke="#F4F4F4" stroke-width="2"/>
<circle cx="590.22" cy="128.5" r="128.5" fill="#7572F7"/>
<path d="M574.72 165L616.72 128L574.72 91V165Z" fill="white"/>
<path d="M145.6 19.98H204.83V159.75C204.83 176.37 200.87 190.73 192.95 202.84C185.03 214.95 174 224.29 159.87 230.86C145.74 237.43 129.33 240.71 110.65 240.71C91.8305 240.71 75.3505 237.43 61.2205 230.86C47.0905 224.29 36.1005 214.95 28.2505 202.84C20.4005 190.73 16.4805 176.37 16.4805 159.75V19.98H75.7105V154.64C75.7105 161.39 77.2005 167.41 80.1805 172.7C83.1605 177.99 87.3005 182.13 92.5905 185.11C97.8805 188.09 103.9 189.58 110.65 189.58C117.47 189.58 123.5 188.09 128.76 185.11C134.01 182.13 138.14 177.99 141.12 172.7C144.1 167.41 145.59 161.39 145.59 154.64V19.98H145.6Z" stroke="#F4F4F4" stroke-width="2"/>
<path d="M296.71 239.3H235.48V19.1201H330.66C346.93 19.1201 361.38 22.1301 373.6 28.0601C385.86 34.0101 395.54 42.7101 402.36 53.9001C409.17 65.0901 412.63 78.6701 412.63 94.2601C412.63 110.01 409.08 123.49 402.08 134.33C395.08 145.17 385.15 153.47 372.56 158.99C360.03 164.49 345.22 167.28 328.53 167.28H296.72V239.3H296.71ZM237.48 237.3H294.71V66.4201H316.59C323.64 66.4201 329.76 67.3901 334.79 69.3101C339.9 71.2601 343.89 74.3201 346.66 78.4201C349.42 82.5101 350.83 87.8401 350.83 94.2701C350.83 100.63 349.43 105.87 346.66 109.86C343.89 113.85 339.89 116.79 334.77 118.6C329.75 120.37 323.64 121.27 316.59 121.27L296.71 121.32V165.3H328.52C344.92 165.3 359.47 162.57 371.74 157.18C383.96 151.82 393.6 143.77 400.39 133.26C407.18 122.75 410.62 109.64 410.62 94.2801C410.62 79.0601 407.26 65.8301 400.65 54.9601C394.04 44.1001 384.64 35.6601 372.73 29.8801C360.78 24.0801 346.62 21.1401 330.66 21.1401H237.48V237.3ZM296.71 68.4201V119.31L316.59 119.26C323.41 119.26 329.3 118.4 334.1 116.71C338.81 115.05 342.48 112.36 345.01 108.72C347.54 105.07 348.83 100.21 348.83 94.2701C348.83 88.2501 347.54 83.3001 345.01 79.5401C342.48 75.7901 338.8 72.9801 334.08 71.1801C329.28 69.3501 323.39 68.4201 316.59 68.4201H296.71Z" fill="#F4F4F4"/>
<path d="M431.72 237.22H363.76L327.01 166.61L328.79 165.69L364.97 235.22H428.34L382.63 151.78L384.39 150.81L431.72 237.22Z" fill="#F4F4F4"/>
</svg>
