<svg width="1224" height="294" viewBox="0 0 1224 294" fill="none" xmlns="http://www.w3.org/2000/svg">
<path d="M161.236 93.8224C160.496 84.5922 157.068 77.3901 150.925 72.216C144.796 67.0419 135.498 64.4549 123.044 64.4549C115.109 64.4549 108.629 65.4039 103.604 67.2889C98.5781 69.187 94.864 71.748 92.4616 74.972C90.0591 78.2091 88.8125 81.9012 88.7216 86.0482C88.5398 89.4673 89.1631 92.5353 90.5916 95.2524C92.0201 97.9824 94.3056 100.426 97.4353 102.598C100.565 104.769 104.578 106.732 109.473 108.487C114.356 110.242 120.174 111.815 126.901 113.193L150.146 118.185C165.82 121.513 179.248 125.894 190.403 131.341C201.558 136.788 210.687 143.184 217.791 150.516C224.894 157.861 230.128 166.104 233.491 175.243C236.855 184.382 238.582 194.353 238.686 205.156C238.595 223.812 233.933 239.594 224.712 252.516C215.492 265.438 202.324 275.279 185.209 282.014C168.093 288.761 147.549 292.128 123.576 292.128C98.9547 292.128 77.4886 288.488 59.1781 281.182C40.8676 273.888 26.6608 262.643 16.5705 247.459C6.49329 232.288 1.38973 212.826 1.29883 189.101H74.3459C74.8004 197.785 76.9691 205.078 80.852 210.98C84.7218 216.895 90.189 221.368 97.2405 224.41C104.292 227.452 112.707 228.986 122.486 228.986C130.693 228.986 137.562 227.972 143.095 225.944C148.627 223.916 152.821 221.095 155.678 217.493C158.535 213.892 160.016 209.784 160.106 205.169C160.016 200.827 158.6 197.018 155.886 193.742C153.159 190.466 148.718 187.515 142.536 184.876C136.355 182.25 128.005 179.78 117.499 177.466L89.28 171.369C64.1907 165.922 44.4258 156.808 29.9982 144.016C15.5706 131.237 8.40225 113.765 8.49315 91.5993C8.40225 73.594 13.2201 57.8248 22.9467 44.3045C32.6734 30.7843 46.1919 20.2281 63.4765 12.662C80.787 5.08287 100.643 1.2998 123.044 1.2998C145.913 1.2998 165.703 5.13487 182.391 12.792C199.078 20.4621 211.973 31.2393 221.063 45.1365C230.141 59.0338 234.738 75.2581 234.829 93.8224H161.236Z" stroke="#F4F4F4" stroke-width="2"/>
<path d="M260.281 67.2239V5.17383H506.538V67.2239H421.322V288.826H345.509V67.2239H260.281Z" stroke="#F4F4F4" stroke-width="2"/>
<path d="M796.506 146.993C796.506 178.571 790.377 205.182 778.105 226.841C765.833 248.499 749.275 264.879 728.433 276.008C707.59 287.136 684.345 292.7 658.71 292.7C632.881 292.7 609.571 287.097 588.78 275.878C567.976 264.658 551.47 248.226 539.25 226.568C527.031 204.922 520.914 178.402 520.914 147.006C520.914 115.429 527.018 88.8173 539.25 67.1589C551.47 45.5136 567.976 29.1203 588.78 17.9921C609.584 6.8639 632.894 1.2998 658.723 1.2998C684.358 1.2998 707.603 6.8639 728.446 17.9921C749.288 29.1203 765.846 45.5136 778.118 67.1589C790.377 88.8043 796.506 115.416 796.506 146.993ZM717.381 146.993C717.381 130.002 715.148 115.676 710.668 103.989C706.187 92.3144 699.604 83.4482 690.89 77.3901C682.176 71.345 671.45 68.316 658.723 68.316C645.997 68.316 635.27 71.345 626.556 77.3901C617.843 83.4352 611.246 92.3014 606.778 103.989C602.298 115.676 600.065 130.002 600.065 146.993C600.065 163.985 602.298 178.311 606.778 189.998C611.246 201.685 617.843 210.538 626.556 216.597C635.27 222.642 645.997 225.671 658.723 225.671C671.45 225.671 682.176 222.642 690.89 216.597C699.604 210.551 706.2 201.685 710.668 189.998C715.135 178.324 717.381 163.985 717.381 146.993Z" stroke="#F4F4F4" stroke-width="2"/>
<path d="M831.919 288.826V5.17383H954.222C975.247 5.17383 993.648 9.00889 1009.43 16.666C1025.19 24.3362 1037.46 35.3603 1046.23 49.7646C1055 64.1688 1059.37 81.4331 1059.37 101.557C1059.37 121.864 1054.88 138.998 1045.88 152.934C1036.89 166.871 1024.3 177.401 1008.12 184.512C991.934 191.623 973.039 195.172 951.469 195.172H878.422V135.345H935.977C945.015 135.345 952.742 134.214 959.144 131.952C965.559 129.69 970.494 126.063 973.948 121.084C977.403 116.092 979.143 109.592 979.143 101.557C979.143 93.4323 977.416 86.8022 973.948 81.6801C970.494 76.558 965.559 72.775 959.144 70.3179C952.729 67.8739 945.015 66.6519 935.977 66.6519H908.862V288.8H831.919V288.826Z" stroke="#F4F4F4" stroke-width="2"/>
<path d="M951.456 195.198L998.804 286.29H1084.08L1023.67 175.893" stroke="#F4F4F4" stroke-width="2"/>
<path d="M1080.4 5.17383H1166.17L1221.5 120.408H1223.72L1279.06 5.17383H1364.83L1260.8 199.618V288.813H1184.43V199.618L1080.4 5.17383Z" stroke="#F4F4F4" stroke-width="2"/>
</svg>
