<svg width="755" height="224" viewBox="0 0 755 224" fill="none" xmlns="http://www.w3.org/2000/svg">
<path d="M0.510742 221H-1.48926V223H0.510742V221ZM0.510742 3.54545V1.54545H-1.48926V3.54545H0.510742ZM136.526 10.2347L135.789 12.0941L135.793 12.0957L136.526 10.2347ZM162.115 29.1346L160.48 30.2863L160.487 30.2957L162.115 29.1346ZM165.513 79.782L163.751 78.8349L163.747 78.8423L163.743 78.8497L165.513 79.782ZM150.86 96.3459L152.003 97.9869L152.01 97.9826L152.016 97.9783L150.86 96.3459ZM128.775 105.477L128.38 103.517L126.775 103.84V105.477H128.775ZM128.775 107.601H126.775V109.527L128.699 109.599L128.775 107.601ZM154.258 114.715L153.262 116.449L153.274 116.456L154.258 114.715ZM172.521 132.659L170.8 133.679L170.804 133.686L172.521 132.659ZM169.972 191.164L168.312 190.048L168.306 190.057L169.972 191.164ZM143.64 213.037L142.795 211.224L143.64 213.037ZM59.5463 173.857H57.5463V175.857H59.5463V173.857ZM109.45 168.335L110.643 169.941L110.65 169.935L110.658 169.93L109.45 168.335ZM103.398 130.748L102.603 132.583L102.614 132.588L103.398 130.748ZM59.5463 127.987V125.987H57.5463V127.987H59.5463ZM59.5463 91.4616H57.5463V93.4616H59.5463V91.4616ZM97.4521 89.0195L98.212 90.8696H98.212L97.4521 89.0195ZM106.69 82.0117L105.072 80.8354L105.067 80.8421L106.69 82.0117ZM102.867 55.2546L101.667 56.8546L101.675 56.8603L101.683 56.8659L102.867 55.2546ZM59.5463 49.8395V47.8395H57.5463V49.8395H59.5463ZM2.51074 221V3.54545H-1.48926V221H2.51074ZM0.510742 5.54545H94.7977V1.54545H0.510742V5.54545ZM94.7977 5.54545C111.196 5.54545 124.838 7.75485 135.789 12.0941L137.263 8.37537C125.704 3.79557 111.527 1.54545 94.7977 1.54545V5.54545ZM135.793 12.0957C146.837 16.4441 155.017 22.5302 160.48 30.2863L163.75 27.9829C157.746 19.4582 148.867 12.9444 137.259 8.37379L135.793 12.0957ZM160.487 30.2957C166.024 38.0618 168.822 47.2372 168.822 57.9091H172.822C172.822 46.4958 169.815 36.4881 163.744 27.9734L160.487 30.2957ZM168.822 57.9091C168.822 65.6012 167.123 72.5632 163.751 78.8349L167.274 80.729C170.981 73.8345 172.822 66.2146 172.822 57.9091H168.822ZM163.743 78.8497C160.427 85.1438 155.758 90.4288 149.705 94.7135L152.016 97.9783C158.563 93.3439 163.662 87.5863 167.282 80.7142L163.743 78.8497ZM149.717 94.7048C143.667 98.9193 136.567 101.866 128.38 103.517L129.17 107.438C137.83 105.691 145.453 102.55 152.003 97.9869L149.717 94.7048ZM126.775 105.477V107.601H130.775V105.477H126.775ZM128.699 109.599C137.74 109.942 145.915 112.232 153.262 116.449L155.254 112.98C147.311 108.421 138.498 105.968 128.851 105.602L128.699 109.599ZM153.274 116.456C160.611 120.6 166.446 126.331 170.8 133.679L174.241 131.639C169.535 123.698 163.195 117.466 155.241 112.973L153.274 116.456ZM170.804 133.686C175.121 140.902 177.316 149.454 177.316 159.416H181.316C181.316 148.85 178.981 139.564 174.237 131.632L170.804 133.686ZM177.316 159.416C177.316 170.938 174.305 181.127 168.312 190.048L171.633 192.279C178.098 182.655 181.316 171.679 181.316 159.416H177.316ZM168.306 190.057C162.377 198.985 153.903 206.049 142.795 211.224L144.485 214.85C156.17 209.406 165.251 201.888 171.638 192.27L168.306 190.057ZM142.795 211.224C131.722 216.382 118.433 219 102.867 219V223C118.872 223 132.765 220.309 144.485 214.85L142.795 211.224ZM102.867 219H0.510742V223H102.867V219ZM59.5463 175.857H87.1528V171.857H59.5463V175.857ZM87.1528 175.857C97.2522 175.857 105.19 173.991 110.643 169.941L108.258 166.73C103.8 170.041 96.8735 171.857 87.1528 171.857V175.857ZM110.658 169.93C116.202 165.732 118.883 159.566 118.883 151.771H114.883C114.883 158.558 112.609 163.435 108.243 166.741L110.658 169.93ZM118.883 151.771C118.883 146.363 117.64 141.643 115.048 137.716L111.71 139.919C113.79 143.071 114.883 146.986 114.883 151.771H118.883ZM115.048 137.716C112.473 133.814 108.821 130.885 104.182 128.908L102.614 132.588C106.611 134.291 109.613 136.742 111.71 139.919L115.048 137.716ZM104.193 128.913C99.6321 126.936 94.2142 125.987 88.0022 125.987V129.987C93.8239 129.987 98.6699 130.879 102.603 132.583L104.193 128.913ZM88.0022 125.987H59.5463V129.987H88.0022V125.987ZM57.5463 127.987V173.857H61.5463V127.987H57.5463ZM59.5463 93.4616H83.7551V89.4616H59.5463V93.4616ZM83.7551 93.4616C89.1307 93.4616 93.9628 92.6148 98.212 90.8696L96.6923 87.1695C93.0135 88.6804 88.7142 89.4616 83.7551 89.4616V93.4616ZM98.212 90.8696C102.471 89.1203 105.87 86.5692 108.312 83.1813L105.067 80.8421C103.121 83.5418 100.361 85.6626 96.6923 87.1695L98.212 90.8696ZM108.307 83.1881C110.859 79.6796 112.087 75.4636 112.087 70.6506H108.087C108.087 74.7566 107.051 78.1146 105.072 80.8354L108.307 83.1881ZM112.087 70.6506C112.087 63.3816 109.448 57.6108 104.052 53.6433L101.683 56.8659C105.914 59.977 108.087 64.4702 108.087 70.6506H112.087ZM104.067 53.6546C98.8361 49.7312 92.3001 47.8395 84.6045 47.8395V51.8395C91.6324 51.8395 97.2716 53.5578 101.667 56.8546L104.067 53.6546ZM84.6045 47.8395H59.5463V51.8395H84.6045V47.8395ZM57.5463 49.8395V91.4616H61.5463V49.8395H57.5463ZM200.233 221H198.233V223H200.233V221ZM200.233 3.54545V1.54545H198.233V3.54545H200.233ZM259.269 3.54545H261.269V1.54545H259.269V3.54545ZM259.269 173.432H257.269V175.432H259.269V173.432ZM347.185 173.432H349.185V171.432H347.185V173.432ZM347.185 221V223H349.185V221H347.185ZM202.233 221V3.54545H198.233V221H202.233ZM200.233 5.54545H259.269V1.54545H200.233V5.54545ZM257.269 3.54545V173.432H261.269V3.54545H257.269ZM259.269 175.432H347.185V171.432H259.269V175.432ZM345.185 173.432V221H349.185V173.432H345.185ZM347.185 219H200.233V223H347.185V219ZM559.118 173.538L560.857 174.526L560.859 174.523L559.118 173.538ZM521 211.232L521.938 212.998L521.944 212.995L521 211.232ZM413.759 211.125L412.806 212.884L412.815 212.889L413.759 211.125ZM375.747 173.326L374.003 174.305L374.008 174.314L375.747 173.326ZM375.747 51.1136L374.007 50.1285L374.005 50.131L375.747 51.1136ZM413.759 13.4201L414.701 15.1848L414.703 15.1833L413.759 13.4201ZM521 13.4201L520.056 15.1833L520.062 15.1865L521 13.4201ZM559.118 51.1136L557.378 52.0987L557.38 52.1019L559.118 51.1136ZM507.303 79.3572L505.432 80.0643L505.436 80.0733L505.439 80.0821L507.303 79.3572ZM492.119 58.9709L490.97 60.6077L490.98 60.6147L490.99 60.6215L492.119 58.9709ZM442.746 58.9709L443.884 60.6159L443.887 60.6134L442.746 58.9709ZM427.563 79.3572L425.697 78.6373L425.694 78.6452L427.563 79.3572ZM427.563 145.294L425.692 146.001L425.695 146.01L425.699 146.019L427.563 145.294ZM442.746 165.681L441.597 167.318L441.607 167.325L441.617 167.331L442.746 165.681ZM492.119 165.681L493.257 167.326L493.261 167.323L492.119 165.681ZM507.303 145.294L505.437 144.574L505.434 144.582L507.303 145.294ZM571.24 112.273C571.24 136.227 566.583 156.289 557.378 172.553L560.859 174.523C570.483 157.518 575.24 136.736 575.24 112.273H571.24ZM557.38 172.55C548.142 188.803 535.704 201.09 520.056 209.468L521.944 212.995C538.292 204.242 551.266 191.401 560.857 174.526L557.38 172.55ZM520.062 209.465C504.378 217.793 486.866 221.973 467.486 221.973V225.973C487.462 225.973 505.627 221.659 521.938 212.998L520.062 209.465ZM467.486 221.973C447.964 221.973 430.384 217.758 414.703 209.362L412.815 212.889C429.13 221.623 447.368 225.973 467.486 225.973V221.973ZM414.713 209.367C399.132 200.919 386.726 188.594 377.486 172.337L374.008 174.314C383.598 191.185 396.533 204.06 412.806 212.884L414.713 209.367ZM377.491 172.346C368.354 156.079 363.732 136.085 363.732 112.273H359.732C359.732 136.595 364.453 157.303 374.004 174.305L377.491 172.346ZM363.732 112.273C363.732 88.3161 368.355 68.2892 377.489 52.0963L374.005 50.131C364.452 67.0659 359.732 87.8117 359.732 112.273H363.732ZM377.488 52.0987C386.727 35.7741 399.129 23.4897 414.701 15.1848L412.818 11.6554C396.536 20.3391 383.597 33.1837 374.007 50.1285L377.488 52.0987ZM414.703 15.1833C430.384 6.78768 447.964 2.57243 467.486 2.57243V-1.42757C447.368 -1.42757 429.13 2.9223 412.815 11.6569L414.703 15.1833ZM467.486 2.57243C486.864 2.57243 504.373 6.78656 520.056 15.1833L521.944 11.6569C505.632 2.92341 487.465 -1.42757 467.486 -1.42757V2.57243ZM520.062 15.1865C535.704 23.4921 548.14 35.7764 557.378 52.0987L560.859 50.1285C551.268 33.1815 538.291 20.3367 521.938 11.6537L520.062 15.1865ZM557.38 52.1019C566.583 68.2936 571.24 88.3184 571.24 112.273H575.24C575.24 87.8095 570.483 67.0615 560.857 50.1254L557.38 52.1019ZM514.506 112.273C514.506 99.0839 512.751 87.8495 509.167 78.6324L505.439 80.0821C508.792 88.7031 510.506 99.4123 510.506 112.273H514.506ZM509.174 78.6502C505.658 69.3478 500.369 62.1917 493.249 57.3203L490.99 60.6215C497.32 64.9522 502.153 71.387 505.432 80.0643L509.174 78.6502ZM493.269 57.334C486.215 52.3815 477.581 49.9631 467.486 49.9631V53.9631C476.928 53.9631 484.716 56.2165 490.97 60.6077L493.269 57.334ZM467.486 49.9631C457.39 49.9631 448.725 52.3817 441.605 57.3284L443.887 60.6134C450.216 56.2163 458.045 53.9631 467.486 53.9631V49.9631ZM441.609 57.3259C434.566 62.196 429.281 69.346 425.697 78.6373L429.429 80.0772C432.781 71.3889 437.619 64.9479 443.884 60.6159L441.609 57.3259ZM425.694 78.6452C422.184 87.858 420.466 99.0876 420.466 112.273H424.466C424.466 99.4086 426.146 88.6945 429.432 80.0692L425.694 78.6452ZM420.466 112.273C420.466 125.459 422.184 136.721 425.692 146.001L429.433 144.587C426.146 135.888 424.466 125.136 424.466 112.273H420.466ZM425.699 146.019C429.284 155.24 434.566 162.381 441.597 167.318L443.895 164.044C437.618 159.637 432.778 153.187 429.427 144.569L425.699 146.019ZM441.617 167.331C448.736 172.202 457.396 174.582 467.486 174.582V170.582C458.039 170.582 450.206 168.362 443.876 164.03L441.617 167.331ZM467.486 174.582C477.575 174.582 486.205 172.202 493.257 167.326L490.982 164.036C484.727 168.361 476.934 170.582 467.486 170.582V174.582ZM493.261 167.323C500.368 162.385 505.655 155.238 509.172 146.006L505.434 144.582C502.155 153.189 497.32 159.632 490.978 164.038L493.261 167.323ZM509.169 146.014C512.751 136.73 514.506 125.462 514.506 112.273H510.506C510.506 125.132 508.792 135.88 505.437 144.574L509.169 146.014ZM741.773 75.3224L739.83 75.7989L740.204 77.3224H741.773V75.3224ZM737.419 65.4478L735.768 66.5757L735.774 66.5853L735.781 66.5947L737.419 65.4478ZM729.987 58.1215L728.832 59.7543L728.854 59.7702L728.877 59.7856L729.987 58.1215ZM719.794 53.5557L719.258 55.4828L719.279 55.4886L719.3 55.4939L719.794 53.5557ZM681.782 59.0771L680.661 57.4207L680.653 57.426L681.782 59.0771ZM665.855 79.5696L664.006 78.8066L664.001 78.8192L665.855 79.5696ZM665.642 144.551L663.775 145.266L665.642 144.551ZM681.145 165.362L679.996 167V167L681.145 165.362ZM729.137 168.654L728.339 166.82L728.331 166.823L729.137 168.654ZM742.622 157.505L740.921 156.454L742.622 157.505ZM747.082 140.516L747.289 138.527L745.082 138.297V140.516H747.082ZM757.275 141.578V143.578L757.482 139.589L757.275 141.578ZM707.583 141.578H705.583V143.578H707.583V141.578ZM707.583 99.5312V97.5312H705.583V99.5312H707.583ZM803.994 99.5312H805.994V97.5312H803.994V99.5312ZM791.358 180.546L789.642 179.519L789.64 179.522L791.358 180.546ZM756.744 212.824L757.649 214.608L757.652 214.606L756.744 212.824ZM650.565 210.488L649.585 212.232L650.565 210.488ZM613.084 172.051L611.321 172.997L611.324 173.002L613.084 172.051ZM607.881 64.9169L606.023 64.1774L606.02 64.1856L607.881 64.9169ZM630.816 29.7717L632.214 31.2013L632.22 31.1962L630.816 29.7717ZM664.687 8.00496L665.399 9.87379L665.408 9.87032L664.687 8.00496ZM741.773 6.09375L741.14 7.99112L741.148 7.99354L741.155 7.99591L741.773 6.09375ZM771.184 21.5959L769.943 23.164L769.95 23.1697L769.957 23.1753L771.184 21.5959ZM791.889 45.2738L793.624 44.2786L791.889 45.2738ZM801.445 75.3224V77.3224H803.664L803.435 75.1158L801.445 75.3224ZM743.715 74.846C742.743 70.8821 741.198 67.3576 739.058 64.3009L735.781 66.5947C737.605 69.2009 738.962 72.2594 739.83 75.7989L743.715 74.846ZM739.071 64.3199C736.942 61.2022 734.279 58.5792 731.096 56.4574L728.877 59.7856C731.641 61.6277 733.933 63.8889 735.768 66.5757L739.071 64.3199ZM731.142 56.4886C728.015 54.2772 724.387 52.6612 720.287 51.6175L719.3 55.4939C722.987 56.4323 726.154 57.8601 728.832 59.7543L731.142 56.4886ZM720.329 51.6287C716.307 50.5115 711.912 49.9631 707.158 49.9631V53.9631C711.607 53.9631 715.635 54.4764 719.258 55.4828L720.329 51.6287ZM707.158 49.9631C696.919 49.9631 688.053 52.4178 680.661 57.4207L682.903 60.7334C689.526 56.251 697.578 53.9631 707.158 53.9631V49.9631ZM680.653 57.426C673.349 62.4195 667.813 69.5826 664.006 78.8066L667.703 80.3326C671.258 71.7186 676.34 65.2199 682.91 60.7281L680.653 57.426ZM664.001 78.8192C660.269 88.0379 658.44 99.0665 658.44 111.848H662.44C662.44 99.4297 664.22 88.9393 667.709 80.32L664.001 78.8192ZM658.44 111.848C658.44 124.761 660.196 135.918 663.775 145.266L667.51 143.836C664.152 135.063 662.44 124.418 662.44 111.848H658.44ZM663.775 145.266C667.363 154.639 672.755 161.923 679.996 167L682.293 163.725C675.802 159.174 670.859 152.584 667.51 143.836L663.775 145.266ZM679.996 167C687.266 172.096 696.22 174.582 706.734 174.582V170.582C696.861 170.582 688.756 168.255 682.293 163.725L679.996 167ZM706.734 174.582C715.901 174.582 723.666 173.249 729.944 170.484L728.331 166.823C722.717 169.296 715.546 170.582 706.734 170.582V174.582ZM729.936 170.488C736.265 167.733 741.104 163.769 744.324 158.556L740.921 156.454C738.195 160.867 734.044 164.337 728.339 166.82L729.936 170.488ZM744.324 158.556C747.52 153.381 749.082 147.343 749.082 140.516H745.082C745.082 146.715 743.67 152.002 740.921 156.454L744.324 158.556ZM746.874 142.506L757.068 143.567L757.482 139.589L747.289 138.527L746.874 142.506ZM757.275 139.578H707.583V143.578H757.275V139.578ZM709.583 141.578V99.5312H705.583V141.578H709.583ZM707.583 101.531H803.994V97.5312H707.583V101.531ZM801.994 99.5312V129.686H805.994V99.5312H801.994ZM801.994 129.686C801.994 149.22 797.845 165.802 789.642 179.519L793.075 181.572C801.719 167.117 805.994 149.792 805.994 129.686H801.994ZM789.64 179.522C781.483 193.209 770.228 203.708 755.836 211.042L757.652 214.606C772.707 206.934 784.528 195.914 793.076 181.57L789.64 179.522ZM755.839 211.041C741.507 218.31 725.014 221.973 706.309 221.973V225.973C725.545 225.973 742.675 222.203 757.649 214.608L755.839 211.041ZM706.309 221.973C685.434 221.973 667.2 217.542 651.545 208.745L649.585 212.232C665.925 221.414 684.854 225.973 706.309 225.973V221.973ZM651.545 208.745C635.887 199.946 623.659 187.413 614.843 171.101L611.324 173.002C620.488 189.959 633.248 203.051 649.585 212.232L651.545 208.745ZM614.846 171.106C606.113 154.819 601.705 135.373 601.705 112.697H597.705C597.705 135.892 602.216 156.015 611.321 172.997L614.846 171.106ZM601.705 112.697C601.705 94.9178 604.4 79.2467 609.743 65.6482L606.02 64.1856C600.461 78.3352 597.705 94.5178 597.705 112.697H601.705ZM609.739 65.6564C615.167 52.0177 622.663 40.5445 632.214 31.2013L629.417 28.342C619.431 38.111 611.638 50.068 606.023 64.1774L609.739 65.6564ZM632.22 31.1962C641.791 21.7636 652.846 14.6593 665.399 9.87377L663.974 6.13615C650.903 11.1191 639.378 18.5259 629.412 28.3472L632.22 31.1962ZM665.408 9.87032C677.975 5.01009 691.462 2.57243 705.884 2.57243V-1.42757C691.001 -1.42757 677.023 1.0898 663.965 6.1396L665.408 9.87032ZM705.884 2.57243C718.575 2.57243 730.322 4.38507 741.14 7.99112L742.405 4.19638C731.138 0.440681 718.959 -1.42757 705.884 -1.42757V2.57243ZM741.155 7.99591C752.06 11.5383 761.649 16.598 769.943 23.164L772.426 20.0278C763.731 13.1444 753.712 7.8693 742.391 4.19159L741.155 7.99591ZM769.957 23.1753C778.323 29.6743 785.05 37.3704 790.154 46.269L793.624 44.2786C788.252 34.9144 781.176 26.8252 772.411 20.0165L769.957 23.1753ZM790.154 46.269C795.248 55.1482 798.351 64.8941 799.456 75.5291L803.435 75.1158C802.274 63.9487 799.007 53.6622 793.624 44.2786L790.154 46.269ZM801.445 73.3224H741.773V77.3224H801.445V73.3224Z" fill="#F4F4F4"/>
</svg>
